<svg id="Layer_1" data-name="Layer 1" xmlns="http://www.w3.org/2000/svg" viewBox="0 0 614.44 188.48"><defs><style>.cls-1{fill:#f79b1d;}.cls-2{fill:#676767;}.cls-3{fill:#fff;}</style></defs><path id="path17" class="cls-1" d="M567.34,11.05c-5.25-2.15-10.1-2.41-16-2.33l-100,.55a106.57,106.57,0,0,0-58.53,14.12v0A10.11,10.11,0,1,0,405.07,39.2a86.33,86.33,0,0,1,99.91,139l.08.11a10.1,10.1,0,1,0,13.63,14.12,105.57,105.57,0,0,0,25.38-36.92c.41-1,41.36-100.74,41.47-101A33.34,33.34,0,0,0,567.34,11.05Z" transform="translate(-10.04 -8.71)"/><path id="path19" class="cls-2" d="M31.87,128.63c.16,10,8.57,14.07,17.62,14.07,6.63,0,15-2.59,15-10.68,0-7-9.54-9.38-26-12.94C25.23,116.17,12,111.48,12,96.77c0-21.35,18.43-26.85,36.38-26.85,18.28,0,35.09,6.15,36.87,26.68H63.4C62.76,87.71,56,85.29,47.72,85.29c-5.18,0-12.78,1-12.78,7.76,0,8.24,12.94,9.37,26,12.45C74.4,108.57,87.5,113.42,87.5,129c0,22-19.09,29.1-38.17,29.1-19.4,0-38.32-7.27-39.29-29.43H31.87Z" transform="translate(-10.04 -8.71)"/><path id="path21" class="cls-2" d="M135,69.93c26.36,0,43.34,17.46,43.34,44.14,0,26.52-17,44-43.34,44-26.2,0-43.18-17.47-43.18-44C91.86,87.39,108.84,69.93,135,69.93Zm0,70.82c15.68,0,20.37-13.42,20.37-26.68,0-13.42-4.69-26.84-20.37-26.84-15.53,0-20.22,13.42-20.22,26.84C114.82,127.33,119.51,140.75,135,140.75Z" transform="translate(-10.04 -8.71)"/><path id="path23" class="cls-2" d="M262.34,155.79H240.51V144.15H240a29.83,29.83,0,0,1-25.55,13.91c-24.42,0-30.57-13.75-30.57-34.45V72.19h23v47.22c0,13.75,4,20.54,14.72,20.54C234,140,239.38,133,239.38,116V72.19h23v83.6Z" transform="translate(-10.04 -8.71)"/><path id="path25" class="cls-2" d="M269.3,72.19h21.83V87.71h.32c4.2-10.51,15.52-17.78,26.68-17.78a17.35,17.35,0,0,1,5,.8V92.08a41.62,41.62,0,0,0-8.25-.81c-16.81,0-22.64,12.13-22.64,26.84v37.68h-23V72.19Z" transform="translate(-10.04 -8.71)"/><path id="path27" class="cls-2" d="M379.75,101.62c-1.46-9.38-7.44-14.39-17-14.39-14.72,0-19.57,14.88-19.57,27.17,0,12,4.69,26.36,19.08,26.36,10.67,0,16.82-6.79,18.27-17h22.16c-2.91,22.15-18.27,34.28-40.27,34.28-25.23,0-42.2-17.79-42.2-42.85,0-26,15.52-45.28,42.69-45.28,19.73,0,37.84,10.35,39.29,31.69H379.75Z" transform="translate(-10.04 -8.71)"/><path id="path29" class="cls-2" d="M428.09,119.57c.65,14.56,7.77,21.19,20.54,21.19,9.22,0,16.66-5.66,18.11-10.84H487c-6.47,19.73-20.21,28.14-39.13,28.14-26.35,0-42.69-18.11-42.69-44,0-25.07,17.3-44.15,42.69-44.15,28.46,0,42.21,23.94,40.59,49.65H428.09ZM465.45,105c-2.1-11.65-7.12-17.79-18.28-17.79-14.55,0-18.75,11.32-19.07,17.79Z" transform="translate(-10.04 -8.71)"/><path id="path31" class="cls-3" d="M607.77,31.48V42.34h-1.9V31.48h-3.46v-1.7h8.82v1.7Z" transform="translate(-10.04 -8.71)"/><path id="path33" class="cls-3" d="M622.57,42.34v-8.4l-2.9,6.13h-1.4l-3-6.13v8.4h-1.91V29.78h1.91L619,37.6l3.6-7.82h1.91V42.34Z" transform="translate(-10.04 -8.71)"/></svg>