<svg id="Layer_1" data-name="Layer 1" xmlns="http://www.w3.org/2000/svg" viewBox="0 0 525.69 496.65"><defs><style>.cls-1{fill:#e22f29;}</style></defs><path class="cls-1" d="M154.62,406.31c1.33-.51,2.44-1.38,4-1.64,2.33-.39,3.14.72,3.7,2.55,1,3.35-.62,7.26-3.62,8.42-1,.38-1.72-.29-2.23-1s-.89-1.65-1.82-2.06Z" transform="translate(-154.62 -62.55)"/><path class="cls-1" d="M537.32,62.55a1.75,1.75,0,0,0,.11.24c.91,1.35,3.51,1.58,3,3.83s-3.94,4.07-6.64,3.82c-1.68-.15-3.81-.45-4.2-2.06a5.56,5.56,0,0,1,2-5.83Z" transform="translate(-154.62 -62.55)"/><path class="cls-1" d="M401.57,559.2h-4.11a6.08,6.08,0,0,1-.29-5.08c2-6.39,1.8-12.91,1.64-19.5-.34-13.29-1.16-26.59-.4-39.9.44-7.8-.29-15.58-.41-23.37,0-2.56-2.5-2-3.76-2.89-1.08-.77-4.42-3.85-4.25-5.09.53-3.84,1.05-7.65,5.46-9.37a3.54,3.54,0,0,0,2.61-3.89c-1.14-19.68.64-39.39-.57-59.07,0-.32-.06-.65-.12-1.25-2,2.06-3.76,1.68-5.16-.28s-3.49-1.38-5.14-.91c-1.24.35-1.81,1.95-1.74,3.45.09,1.88-.58,2.61-2.5,1.76-.55-.25-1.37-.9-1.9-.12-1.6,2.33-2.71.78-4.19-.23-2.21-1.51-4.37-3.28-7.52-2.37-1.19.34-1.62-1-1.8-2.13-.35-2.18-1.62-2.43-3.4-1.61-.16.08-.35.09-.49.18-4.36,2.92-8.95,1.86-13.43.55a6.15,6.15,0,0,1-4-3.73c-.76-1.91-1.16-3.93-2-5.85a6.77,6.77,0,0,1,.26-5.3c-.38-1.46.58-2.45,1.23-3.58-1,.86-1.33,2.2-2.36,3-5.47,4.68-11.66,7.28-17.08,1.58a6.79,6.79,0,0,0-6.39-2.38c-.9.11-1.9-.6-2.93-1,1.12-2.29,3.2-2,5-2.11,1.53-.1,2.25-.32,2.6-2.25.89-5,3.58-8.72,8.87-9.92,2.28-.52,3.06-1.92,2.31-4.07a15.23,15.23,0,0,1-.37-9.65c1-3.41,6.37-6.74,9.64-5.25,1.6.73,2.61-.47,3.86-.92a6.81,6.81,0,0,0,1.27-.84c1.68,2.93,6,.61,7.63,3.95,1,2.05,4.18,2.4,4.54,5.3.07.58,1-.54,1.81-.58,4.1-.19,4.51-.95,3.4-4.79-.71-2.44-1.51-4.76,0-7.32a2,2,0,0,0-1.52-3,3.67,3.67,0,0,1-3-2.71c-1.3-3.33-2-3.23-5.25-1.8-4.41,1.95-8.56,4.27-13.83,4.43-5,.14-9.76.11-14.43-1.34-3.62-1.12-7-3.36-8.81-6.53-1.18-2.13-2.8-3.63-4.16-5.46a5.88,5.88,0,0,1-1.15-4.21c.57-5.37,1.72-10.4,7.52-12.75a5.56,5.56,0,0,0,2.9-3.23,22.89,22.89,0,0,1,7.17-9.39c4.15-3.2,8.65-4.4,13.76-3,.55.15,1.1.73,1.58-.06.36-.6-.1-1-.45-1.34-.86-.85-.69-2.29-1.89-3-.73-.45-.12-1.09.41-1.42A6.89,6.89,0,0,1,349,277c1.06-.16,2.77,1,3.09-.71.3-1.6.47-3.49-1.27-4.76a4.49,4.49,0,0,1-1.95-3.56c-.05-1.17.37-1.85,1.72-1.5s2.53.67,3.82.89c1.05.18,2,.47,2.29-1.34.19-1.33,1.65-.74,2.22-.17,1.85,1.81,3.63,1.05,5.47.16.5-.5-.06-1.35.59-1.79.86.29,1.06-.18,1.08-.91,0-.55-.31-1.4.57-1.45a2.32,2.32,0,0,1,1.54.82c.91,1,1.62,2.24,2.55,3.26a3.25,3.25,0,0,0,3.34,1c1.34-.37.51-1.65.86-2.45.14-.29.27-.28.41,0l.22,1.42c1.43-1.25,1.72-5.06,4.73-1.58.58-1.37-.53-4.06,2.64-3,.62.22,2-2,2.38-3.43.3-1-.68-1.86-1.57-2.13-1.34-.42-.93-1.14-.69-2,.4-1.39,1.45-3.13,1-4.14-1-2.08,1.21-3.21.84-5s2-1.62,2.26-3.28c.14-.81,2.47-1.1,1.61-3-.13-.3.7-.25,1.09-.2,1.32.17,1.48-.53,1.24-1.57a.41.41,0,0,1,.61,0c.46.28,1.15.6,1.44.16,1.47-2.18,3.78-2.29,6-2.8.65-.14.79-.3,1.32.24,2.28,2.31,3.11,2.32,6.05.19-.43,1.2-.31,2.21.68,2.58s1.35-.85,1.92-1.39A21.1,21.1,0,0,1,416,231.1a8.44,8.44,0,0,0,4.6-4c2.37-4.39,9.71-7.52,14.42-6.21a4.72,4.72,0,0,1,2.88,1.71c2,3.26,6.33,3.57,8.15,7.43a22.29,22.29,0,0,0,1.26-10c-.09-1.73-1.21-1.27-2-.78-1.8,1.16-3.32.94-4.62-.64-.69-.84-1.19-.68-1.91-.12-.37.29-.9.69-1.36.13a1.08,1.08,0,0,1,.14-1.65c1.13-.63,1.17-1.71,1.58-2.72,1.16-2.81,4.42-3.24,7.5-1.13.5-.38.32-.93.33-1.42s.15-.92.7-.8a1,1,0,0,1,.57.77c0,1.4-.07,2.8-.14,4.2-.23,4.9-.46,9.81,1,14.58.26.81.25,2.27,1.34,2.24a3.18,3.18,0,0,0,2.65-1.91c.21-.47.47-.91.75-1.43,1.87.81.81,4,3.47,4a.38.38,0,0,1,.6,0c2.77-.28,2.69-2.26,2.46-4.25-.13-1.13-.7-2.23-.32-3.43,1.3.17,1,1.09,1.21,1.67.56,1.75.24,4.18,3.42,3.59.56-.11,1.52.86,2,1.55,1.24,1.8,3.84,2.52,4.06,5.13.1,1.14,1.1,1.27,1.92,1.43a3.74,3.74,0,0,1,3.27,3c1.13-.67,1.21-1.75,1.51-2.75,2-6.56,9.69-9.68,16-7.52,3.82,1.31,6,8.36,3.81,11.61a8.5,8.5,0,0,0-.87,2.16,7.4,7.4,0,0,1-4.75,5.2c-1.23.44-2.48.89-3.06,2.36,1.32.75,2.29,0,3.25-.66a8.09,8.09,0,0,1,9.07-.4c1.94,1.08,4.36.88,6.08,2.92a9,9,0,0,1,2.24,5.07c.25,3.55,1.19,7.34-1.46,10.55a5.15,5.15,0,0,0-.6,1.44c-.34.89-.44,1.77.58,2.26a1.9,1.9,0,0,0,2.56-.42c2-2.31,4-4.59,6.21-6.71.71-.7,1.16-2.55,3-1.19.64.46,2.82-2.75,2.51-3.76a9.47,9.47,0,0,0-.69-2c-1.59-2.76-2.57-5.44.07-8.21a4.16,4.16,0,0,0,.58-2.25c.31-2.69.36-5.5,3.66-6.78-1.91.21-3.64-2.84-5.64.56-.91,1.55-1-1.12-1.82-1.76-2.16,2.53-4.86,3.85-8.26,2.9-3.76-1-5-5-2.31-7.87a49.82,49.82,0,0,0,3.56-4.39c1.29-1.7,1.24-3.09-.42-4.23s-1.64-2.34-.89-4.29a21.39,21.39,0,0,1,6.62-8.82c1-.84,1.19-1.67.37-2.67a3.27,3.27,0,0,1-.9-2.39c2.64,2.66,5,.42,7.39,0,1.22-.21,2.37-.48,3.45.52.39.36,1.44.65,1.67.43,2.37-2.33,4.76.31,7.11-.11a1.3,1.3,0,0,1,1.64.92c.08.24.23.57.42.64,2.73,1,4.68,2.46,4.19,5.82-.09.65.61,1.25,1.4,1.34,2.05.23,2.49,2.12,3.12,3.47s-.53,1.88-1.9,1.78c-3-.2-3.56.22-3.63,3.24a12.4,12.4,0,0,1-2.37,7.13c-1.58,2.36-2.52,4.7-5.53,5.57-1,.28-2.26,1.36-2.1,2.42s1.57,1.51,2.67,1.87c3.29,1.09,6.57,2.29,9.24-1.3a2.5,2.5,0,0,1,1.57-.85c5.31-.6,10.84-1.93,15.54,1.65,5.25,4,7.4,7.8,5,15.75-1.11,3.73-3.07,6.86-7.07,8.16a3.15,3.15,0,0,0-1.17.59c-4.73,4.56-10.53,3.18-16.12,2.87-.41,0-1.14-.19-1.17-.36-.36-2.79-2.48-2.35-4.32-2.43-.46,0-.85-.13-.91-.71-.19-1.61-1.47-1.69-2.68-1.84-2.21-2.85-2.91-2.62-5.28-.12a95.71,95.71,0,0,0-9.67,12.25,11.36,11.36,0,0,0-3.25,3.91c1.74-.71,2.32-2.22,3.33-3.26a89.68,89.68,0,0,0,9.07-8.9c1.14-1.33,2.56-2.33,3.77-3.57a1.53,1.53,0,0,1,2.1-.38c-.35,1.34-1.57,2.09-2.23,3.22a1.48,1.48,0,0,1-.93,1,74.55,74.55,0,0,0-9.32,9.06c-.56.65-.5.72-.06,1.32.88,1.18,1.56,2.5,2.34,3.75.56.9.2,1.76.08,2.83-1.59-1-2-2.64-3.1-3.72-1-.79-1.83-.23-2.59.49-.75.07-1.49.24-1.11,1.23a1.76,1.76,0,0,1-.84,2.23,1.11,1.11,0,0,0-.16,1.94c1.68,1.74.38,2.41-1.11,2.9-.73.24-1.56.2-2.31.41a3.47,3.47,0,0,0-1.83,5.68c3.23,3.95,3,5-1.83,6.58-3.21,1.05-4.38,3.49-5.3,6.28-.29.87-.2.94,1,.61.88-.26,1.11.28,1.22.89.19,1,.23,2.07.44,3.09.26,1.34.22,1.2,1.41.44.29-.18,2,1,1.92,1.26-.55,2.68,1.68,4.88,1.17,7.49a3.79,3.79,0,0,1,1.11,1.54c1,1.2-.34,2.66.45,3.93.13.21-1,.71-.22,1.19a1.33,1.33,0,0,0,1.7-.25c.95-1.09,1.38-.91,2.24.26,1.62,2.2,4.65,2.16,6.74,3.7.06.05.2.1.24.07,3.31-2.5,8.26,1,11.18-3.13-.81,1.8-1,3.66-3.85,3.8-1.65.07-3.71,1.58-4.73,3.35-.5.87-.85,1.06-1.51.56-1.06-.8-1.44,0-1.69.71-.56,1.65.91,4,2.59,4.58.85.28,2.72-.25,2.32,1.16-.36,1.25-2.74.82-3.24.36-1.94-1.77-2.31.07-3.39.94l3.33,1c.09,1.2-1.13,1.28-1.42,1.23-1.46-.25-3.17-1.5-2.58,1.67.17.94-2.13,1-3,0-2.15-2.65-2.37-2.68-5.82-.49a11.8,11.8,0,0,1,1.76.2c1.21.36,2.48.84,2.17,2.44s-1.34,1.7-2.85,1.91c-3.75.52-7.64.3-11.18,2.29-1.9,1.07-1.41,1.74-.35,2.83,0,.42,0,.71-.57.48a1.69,1.69,0,0,1-1.4-1.38c-.36-1.14-1.23-.68-1.93-.72-.35,0-.74.06-.7.52a2.15,2.15,0,0,0,.92,1.51,20.45,20.45,0,0,0,4.67,2.35c-3,1.72-5.8,3.49-9.38,2a1.42,1.42,0,0,0-2.06,1c-.33,1.2.83,1.1,1.42,1.45a11.34,11.34,0,0,0,1.68.68c.11.47-.18.67-.54.84-.84.31-1.67-.24-2.7-.15,1,2.42,3.17,2.62,5,3.41.6-.86-.86-1.71.18-2.42a1.74,1.74,0,0,1,1.43-.27,21.31,21.31,0,0,1,5.61,2.19c.2.82-.43.69-.9.79s-1.2-.32-1.59.38c.44.81,1,1.68-.68,1.52s-3.05-.32-4.58-.49c-.4.12-.6.78-1.17.43-.25-.05-.61-.23-.75-.12a5.57,5.57,0,0,1-6.17.9c-.54-.24-.79-.06-1,.42-.56,1.42,1,5,2.47,5.6,1,.44,2.2.46,3.07,1.43a3.91,3.91,0,0,1-3.51-.3c-1.63-.76-2.75-.77-2.54,1.56-3.38-1.85-4.23-1.06-4.8,4.11-.33.52-.16,1.48-1.21,1.36-.68-.08-1-.48-1.67-2.25-.87,1.68-1.29,3.1.62,4.25a3.75,3.75,0,0,1,1.29,1.89,10.71,10.71,0,0,1,.94,2.17c.67,3.72,3.48,6.34,5.07,9.61,2.75,5.64,4.72,11.59,7.37,17.25a18.15,18.15,0,0,1,2.16,8.47c-5.85-8.68-7.64-19.3-14-27.54-.49,1.37.32,2.37.59,3.49.22.9.88,1.89-.32,2.53-1,.54-1.51-.53-2.22-.91-2.56-1.36-4-3.65-5.13-6.21a5.41,5.41,0,0,0-2.53-3.08c-.73.53-.22,1.27-.52,1.75-.65,1.05-1.44,2.15-2.83,2-1.64-.19-1.24-1.62-1.26-2.7s0-2.08.06-3.13c.54-1.16,3-1.78.62-4.12.53,1.82.48,3.14-.58,4.18-3.12-.7-4.37-3.78-6.83-5.33-.5-.32-.79-.95-1.27-1.32s-.95-1.5-1.87-.95-.73,1.29-.21,2.06a1,1,0,0,1,.13.74c-.32,1.11.19,2.92-1.26,3.08-.84.09-2-1.05-2-2.61a3.87,3.87,0,0,0-1.71-2.85c-.94-.78-2-1.18-3.1-.33-.9.73-1,1.55-.32,2.72,1,1.57,0,3.1-.95,4.31-.75.95-2.24.46-3.11.27a2.4,2.4,0,0,1-1.72-3,1.33,1.33,0,0,0-.21-1c-.74-.88.22-2.68-1.09-2.89-1-.17-1.24,1.48-1.87,2.28-.16.2-.33.56-.51.57-3.82.12-3.11,3.33-3.54,5.5-.72,3.67-.83,7.42-2.71,10.87-.87,1.59-.76,3.73-1,5.63a5.92,5.92,0,0,1-.78,2.48,1.72,1.72,0,0,1-2,1c-.84-.23-.95-1.06-.83-1.73,1.09-6.18.77-12.54,2.24-18.68.62-2.56,1.43-5-1.24-7.11-.74-.6-1.05-.75-1.82-.53-3,.87-4.76,3.12-6.34,5.58a30.84,30.84,0,0,0-1.73,2.93,1.55,1.55,0,0,1-1.93.94c-1-.25-.58-1.05-.57-1.73,0-2.27.81-4.52.2-6.79-.19-.7.24-2.29-1.52-1.41-.16.07-.66,0-.41-.34,1.3-1.57.25-2.61-.82-3.52a7.53,7.53,0,0,0-5.12-1.65c-1.28,0-2.34,1.1-3.78.62-.73-.24-.55.68-.58,1.11-.39,5.4-1.07,10.75-.62,16.23.69,8.55-.07,17.15-.13,25.72,0,7.27-.43,14.52-.33,21.8a4.67,4.67,0,0,0,2.11,4c3.41,2.63,5.24,7,2.34,11.26-.27.4,0,1-.71,1.27-3.39,1.21-3.61,3.83-3.79,7.06-1.2,21.08.44,42.19-.88,63.27a47.45,47.45,0,0,0,2,16.85A5.2,5.2,0,0,1,401.57,559.2Z" transform="translate(-154.62 -62.55)"/><path class="cls-1" d="M303,394.81c3.81,2.5,5.79-.79,7.84-2.79s4.91-2.53,7.31-3.87c1.29-.73,1.72.46,2.24,1.15,1.41,1.88,2.72,2.35,4.91.82a36,36,0,0,0,4.23-3.35c1.1-1,2.61-1.93,4-1.17,1.7.9,3.84,1.57,4,4.16.21,3.1-.55,5.7-3.44,7.63,1.58.79,4.08,1.17.61,2.9-1.32.65.4,2.88.51,4.72,1.59-3.64,4.74-3.28,7.62-3.62a8.84,8.84,0,0,0,2.22-.76c1.11-.45,2-1.89,3.22-1.5a22.88,22.88,0,0,1,6.81,3.08c1.31,1,1.19,3.29.95,5.06s.19,3.31,1.66,4.07,1.34,3,3.35,3a16,16,0,0,1,.17,1.73c.09,1.36-.2,2.91,2,3,.8,0,.65.89.74,1.47.43,2.78.83,5.53-.21,8.29a7.54,7.54,0,0,0-.31,2.85c.05,1.67-.14,3.08-1.87,4a3.56,3.56,0,0,0-1.36,1.85c-2.14,5.54-6.84,7.09-12.07,7.79-8.21,1.09-14.1-5.87-14.19-12.64-.05-3.87-1.23-9.05,3.38-12.28,1.81-1.27.42-8.61-1.49-10-.44-.31-.76-.36-1.14,0a3.75,3.75,0,0,0-.78.7c-1.87,3-3.73,5.65-7.38,7-1.63.62-3,1.67-4.95,1.6-4.26-.15-4.45,0-4.9,4.22-.1.93-.45,1.67-1.43,1.35-1.45-.48-3.21-1.19-3.58-2.63-.6-2.36-2.14-2.64-3.92-2.35-1.27.21-1.67-.12-2-1.25-.4-1.39-.74-2.88-2.41-3.51-.69-.27-.55-1.06-.37-1.63a2.72,2.72,0,0,0-.32-2.51c-.94-1.23-1.12-2.18.22-3.29a1.71,1.71,0,0,0,.17-2.41c-1.49-1.82-.72-3.65-.17-5.46C303.81,397.09,303.86,397.1,303,394.81Z" transform="translate(-154.62 -62.55)"/><path class="cls-1" d="M536.36,144.38a11.68,11.68,0,0,0-.54-1.95c-1-2.51,0-4,2.31-4.9,2.56-.95,5.09-2.44,7.78-.1a6.24,6.24,0,0,0,2.72.8,19.32,19.32,0,0,1,8.63,4.17,7.64,7.64,0,0,1,3.18,5.67c.14,2.21,1.79,4.3.57,6.68-.07.14,0,.48,0,.5-2.2.86-1.12,3.22-2.06,4.55-1.39,2-2.71,3.83-2.64,6.38a1.85,1.85,0,0,1-.73,1.33,12.88,12.88,0,0,0-4.12,3.68c-.94,1.47-3.95.73-4.19-1.05s-1.3-1.85-2.59-1.9c-3.27-.12-4.88-1.27-5.44-4.52a10.88,10.88,0,0,0-2.49-5.65c-2-2.22-1.44-5.32-3-7.68-.39-.6.54-1,.89-1.44A6.26,6.26,0,0,0,536.36,144.38Z" transform="translate(-154.62 -62.55)"/><path class="cls-1" d="M260.27,421.76c.13,1.28-.61,2.77,1.82,3.07,1.87.23,2.19,3.78.4,4.59a5.58,5.58,0,0,0-2.72,2.87,2.7,2.7,0,0,1-2.57,1.53,7.44,7.44,0,0,0-5,1.9c-.86.67-1.76,1.54-3,.71a.8.8,0,0,0-1.13.19c-2.21,2.22-4.11,2.53-6.78,1.22a3.51,3.51,0,0,0-1.73-.5c-2.33.24-3.75-1.15-5.07-2.7a19,19,0,0,1-4.16-8.34,28.65,28.65,0,0,0-1.74-5.15c-1.2-2.83.53-5.38,2-7.72,1.14-1.85,2.85-1.11,4.44-.48s3.28.93,4.5-.2c3.44-3.17,6.74-1,9.42.63,2.93,1.83,6.18,2.72,9.12,4.35C260.3,419,260.27,419.05,260.27,421.76Z" transform="translate(-154.62 -62.55)"/><path class="cls-1" d="M239.77,507.21c-.18,3.5-.75,6.42-3.64,8.52-2.26,1.65-7.49,1.28-9.22-.92a8.47,8.47,0,0,0-2-2,3.24,3.24,0,0,1-1.64-3,3.41,3.41,0,0,0-.46-1.74,9.43,9.43,0,0,1,2.15-12.47,2.74,2.74,0,0,0,1.19-2.7c-.11-.95-.31-1.89-.43-2.85-.41-3.08,1.17-6.6,3.55-8s5.65-.89,8.3,1.21c4.2,3.35,5.23,9.61,1.12,12.78-3.1,2.41-1.34,3.75-.58,5.81C238.77,503.68,240.29,505.31,239.77,507.21Z" transform="translate(-154.62 -62.55)"/><path class="cls-1" d="M630.39,149.8c-2.7.28-4.74-1.64-7.12-2.62-1.4-.57-2.35-1.46-3.6.87s-4,3.48-7,2.78a10.26,10.26,0,0,1-7.36-5.34c-2.36-4.55.08-9.22,5.16-10a13.81,13.81,0,0,1,5.2.32,2.77,2.77,0,0,0,3.05-.94c2.54-3.19,6.27-4.55,9.75-3.42,2.82.91,6.43,1.22,8.31,4.39a8.13,8.13,0,0,0,2.18,1.86,2.67,2.67,0,0,1,1.13,2.25C640,147.18,637.58,149.56,630.39,149.8Z" transform="translate(-154.62 -62.55)"/><path class="cls-1" d="M577.89,193.56c-2.67-.45-5.48-.62-7.9-3.85-1.86-2.49-3.77-5.09-5.68-7.61-.9-1.19-2-.67-3-1.1-.78-.35-1.95-.46-1.57-1.56s1.31-.4,2-.08c2,1,3.38.66,3.59-1.89.1-1.08.89-1.63,1.76-2.11a16.41,16.41,0,0,1,17.74,1.54c4,3.26,4.4,11.7.56,15C583.4,193.57,580.84,193.52,577.89,193.56Z" transform="translate(-154.62 -62.55)"/><path class="cls-1" d="M264.58,453a19.13,19.13,0,0,1,2.15-8.21A2.81,2.81,0,0,1,269.1,443c2.31-.17,2.69-1.5,1.85-3.47-.3-.72-1.12-1.8.21-2.13,1.15-.29,1.31,1,1.35,1.79.08,1.85,1.31,2.63,2.52,3.81a68,68,0,0,0,6,4.89c4.49,3.48,4,7.68,3.36,12-.75,5-7.32,7.08-12,5.24C266.22,462.75,265.37,457.87,264.58,453Z" transform="translate(-154.62 -62.55)"/><path class="cls-1" d="M281.23,432.81c0-4.89,3.42-9,7.29-9.15,4.94-.21,9.23,3.25,10.62,8.56,1.54,5.88-1.12,11-6.17,11.9-5.54,1-10.88-3.52-11.65-9.79C281.24,433.72,281.25,433.11,281.23,432.81Z" transform="translate(-154.62 -62.55)"/><path class="cls-1" d="M545.84,198.63c0-5.84,3-9.15,8.5-9.19,6.16-.05,11.59,4.64,11.69,10.11.09,4.8-3.48,8.31-8.51,8.37C551.49,208,545.84,203.5,545.84,198.63Z" transform="translate(-154.62 -62.55)"/><path class="cls-1" d="M179.17,424.39c1.16-3.42,3.86-3.22,6-2.68s3.13,2.63,3.67,4.76a8.57,8.57,0,0,1,0,4.15c-.55,2.35-1.5,4.36-4.08,4.93s-4.23-.77-5.53-2.67c-.92-1.35-1.51-2.21-3.28-.81-1.54,1.21-3.48.9-5.08-.4-2.84-2.31-4.35-7.62-3.13-11s5-4.33,7.43-1.63C176.56,420.51,177.6,422.25,179.17,424.39Z" transform="translate(-154.62 -62.55)"/><path class="cls-1" d="M546,91.51c-.34-1.27-.17-2.42.95-3.06,1.84-1,1.27-1.76-.13-2.63a26.36,26.36,0,0,1-3.13-2.35c-1.32-1.15-2.17-2.56-1.55-4.39a4.75,4.75,0,0,1,4-3.34,11.14,11.14,0,0,1,9.25,2.65c2.35,2,2.66,4.16.76,6.65-.91,1.19-.5,1.52.44,2.09a6.91,6.91,0,0,1,2.94,3.24A4.32,4.32,0,0,1,558,95.94c-3.22,2.44-8.82,1.7-11.46-1.33A3.3,3.3,0,0,1,546,91.51Z" transform="translate(-154.62 -62.55)"/><path class="cls-1" d="M390.58,228.59c-.39,1-2.17,1.13-1.49,2.68.14.13.19.26.13.38s-.11.18-.16.18c-.39-.16-1-.58-1.14-.46-2.2,2-4.16-.76-6.35-.34-.69.14-1.76-1.07-1.12-2.36.43-.85.88-1.7,1.35-2.53,1.08-1.92,2.6-3.57,3.08-5.85a2.9,2.9,0,0,1,3.2-2.49c2,.1,1.87,1.62,2.11,3a15.39,15.39,0,0,1,.38,5.19C390.27,226.87,391.78,227.73,390.58,228.59Z" transform="translate(-154.62 -62.55)"/><path class="cls-1" d="M633.38,120.3c2.34,0,5.68,2.35,6,4.17.66,4-2,6.42-5.89,5.56a6.75,6.75,0,0,1-2.84-1.22c-1.76-1.41-3.28-3-2.49-5.51C628.77,121.31,630.62,120.28,633.38,120.3Z" transform="translate(-154.62 -62.55)"/><path class="cls-1" d="M220,511.44c0,2.95-1.76,4.46-5,4.37-2.41-.07-4.87-3.19-4.84-6.13.05-3.18,1.75-5.36,4.21-5.36C217.3,504.31,220,507.79,220,511.44Z" transform="translate(-154.62 -62.55)"/><path class="cls-1" d="M653.73,107.11c-2.74,0-5.12-1.45-5.83-3.61-1-3.19,1-5.43,4.37-4.82,1.18.21,2.76,0,3.35,1a42.8,42.8,0,0,1,2,4.13C658.26,105.15,655.75,107.1,653.73,107.11Z" transform="translate(-154.62 -62.55)"/><path class="cls-1" d="M196.51,529.42c0,2.1-1.52,4.12-3.18,4.18-2.27.07-5.4-3.61-5.44-6.39,0-1.63,2-4.14,3.32-4.09C194.1,523.24,196.47,526.05,196.51,529.42Z" transform="translate(-154.62 -62.55)"/><path class="cls-1" d="M528.39,270.62l.93-1c.85,3,1.47,3.29,4.06,1.56.78-.52,1.57-1.11,2.31-.32a2.16,2.16,0,0,1,0,3.09,18,18,0,0,0-2.2,3.12c-.78,1.1-2,2-3.36,1.38a4.55,4.55,0,0,1-3-3.69,1.09,1.09,0,0,1,.73-1.21C529.44,272.83,529.18,271.75,528.39,270.62Z" transform="translate(-154.62 -62.55)"/><path class="cls-1" d="M363.88,408.92c.58-.09,1.34.21,1.7-.4,1.74-2.93,3.06-.79,4.36.38,1.73,1.54,1.19,3.16-.3,4.43-1.08.93-2.46,1.42-3.58,2.41a2.25,2.25,0,0,1-3.09-.29c-.7-.82,0-1.55.59-2.27,1.09-1.48,1.72-3-.72-3.84C362.89,408.46,363.37,408.66,363.88,408.92Z" transform="translate(-154.62 -62.55)"/><path class="cls-1" d="M510.67,253.82c-2.3,0-3.9-1.39-3.84-3.37s1.73-3.32,4-3.37,4,1.34,4,3.22S513,253.8,510.67,253.82Z" transform="translate(-154.62 -62.55)"/><path class="cls-1" d="M339.87,390.33c0-2.45,1.43-4.05,3.51-4s3.24,1.53,3.16,3.94-1.66,4-3.65,4C341.15,394.17,339.84,392.49,339.87,390.33Z" transform="translate(-154.62 -62.55)"/><path class="cls-1" d="M545.39,128.82c-1.49,0-3.76-1.88-3.68-3.1.14-2,1.09-3.23,3.3-3,2,.2,3.91.57,4.23,3C549.44,127.18,547.3,128.83,545.39,128.82Z" transform="translate(-154.62 -62.55)"/><path class="cls-1" d="M214.55,421.22c-.12-1.78.84-2.84,2.89-2.91,1.28,0,3.3,2.13,3.33,3.6,0,1.81-1.71,3.91-3.23,3.86S214.58,423.84,214.55,421.22Z" transform="translate(-154.62 -62.55)"/><path class="cls-1" d="M254.8,445.29c-.21,1.51-.45,3.15-2.59,3.18-1.92,0-2.26-1.45-2.3-2.89s.08-3.12,2.18-3.22C254,442.26,254.65,443.52,254.8,445.29Z" transform="translate(-154.62 -62.55)"/><path class="cls-1" d="M568.14,158.59c1.33.07,3,.13,3,2.2s-1.55,2.62-3.22,2.62-2.88-.68-2.86-2.65S566.46,158.62,568.14,158.59Z" transform="translate(-154.62 -62.55)"/><path class="cls-1" d="M677,91.43c1.41.35,3,.61,3.3,2.55.18,1.35-.83,1.64-1.83,1.47-1.6-.28-3.5-.55-3.81-2.49C674.45,91.68,675.8,91.49,677,91.43Z" transform="translate(-154.62 -62.55)"/><path class="cls-1" d="M476.37,394.67c-.29-.7-.46-1.9-.91-2-3.75-1-1.27-3.34-1.21-5.13,0-.76.56-.73,1.1-.68.83.08.75.59.47,1.08-.67,1.13.22,1.64.92,2,.92.45.58-.85,1.13-1l0,2.32c-.68.61-.34,1.44-.48,2.17C477.25,394,477.49,394.85,476.37,394.67Z" transform="translate(-154.62 -62.55)"/><path class="cls-1" d="M184.2,554.21c0,.95-.21,1.94-1.35,1.75-2-.33-2.47-1.93-2.49-3.7,0-1,.22-2.19,1.49-1.9C183.79,550.79,184.07,552.53,184.2,554.21Z" transform="translate(-154.62 -62.55)"/><path class="cls-1" d="M372.39,397c2.64.13,2.64.13,7.57,4.33C377.7,402.42,374.26,400.45,372.39,397Z" transform="translate(-154.62 -62.55)"/><path class="cls-1" d="M516.53,105c.09.15.17.23.17.3a4.13,4.13,0,0,1-3,4.31c-.6.2-1.14,0-1.07-.67C512.88,106.63,514.61,105.72,516.53,105Z" transform="translate(-154.62 -62.55)"/><path class="cls-1" d="M276.58,429.79c-.12.86-.49,1.78-1.7,1.73s-1.67-1-1.63-2.21.69-1.87,1.8-1.77S276.62,428.52,276.58,429.79Z" transform="translate(-154.62 -62.55)"/><path class="cls-1" d="M551.7,184.74c-1.06-.09-2-.38-1.94-1.63a1.63,1.63,0,0,1,1.84-1.71c1.14,0,2,.48,2,1.81S552.61,184.6,551.7,184.74Z" transform="translate(-154.62 -62.55)"/><path class="cls-1" d="M197.54,392.73c.76-2,1.56-3.38,3.39-3.79,1.13-.25,1.71.06,1.13,1.37C201.24,392.16,199.78,392.76,197.54,392.73Z" transform="translate(-154.62 -62.55)"/><path class="cls-1" d="M510.61,313.81c1.24-3.82,1.71-4.41,4.72-5.56-1.35,2-2.39,4.29-4.73,5.52Z" transform="translate(-154.62 -62.55)"/><path class="cls-1" d="M554.75,112.74a1.5,1.5,0,0,1-1.74,1.6c-.84,0-1.91-.2-2-1.29s.9-1.46,1.79-1.51S554.56,111.7,554.75,112.74Z" transform="translate(-154.62 -62.55)"/><path class="cls-1" d="M206.14,429.28c-.14,1-.56,1.76-1.61,1.7s-1.24-1.09-1.22-2,.37-1.84,1.49-1.72S206,428.44,206.14,429.28Z" transform="translate(-154.62 -62.55)"/><path class="cls-1" d="M343.27,372.63c.7-1.64,1-3.58,3-4.53,1,2.38-1.47,3.38-1.87,5.1A1.26,1.26,0,0,0,343.27,372.63Z" transform="translate(-154.62 -62.55)"/><path class="cls-1" d="M389.06,231.83l0-.56a8.17,8.17,0,0,1,2.58,5.28h-.61A9.07,9.07,0,0,1,389.06,231.83Z" transform="translate(-154.62 -62.55)"/><path class="cls-1" d="M476.37,394.67c1-.85.32-2,.48-3,.13-.77.25-1.15,1-.48v5.1Z" transform="translate(-154.62 -62.55)"/><path class="cls-1" d="M458,233.28l-.6,0V225h.6Z" transform="translate(-154.62 -62.55)"/><path class="cls-1" d="M257.64,505c-.74-.07-1.15-.44-1.15-1.16a1.22,1.22,0,0,1,1.23-1.37c.94,0,1,.73,1.07,1.44S258.23,504.9,257.64,505Z" transform="translate(-154.62 -62.55)"/><path class="cls-1" d="M626.45,166.47c.81.08,1.24.44,1.14,1.18s-.45,1.3-1.36,1.08c-.6-.15-1.21-.34-1.12-1.12A1.26,1.26,0,0,1,626.45,166.47Z" transform="translate(-154.62 -62.55)"/><path class="cls-1" d="M187.3,393.53c-.81,0-1-.6-1.09-1.23a1,1,0,0,1,.84-1.15c.77-.16,1.09.36,1.18,1A1.22,1.22,0,0,1,187.3,393.53Z" transform="translate(-154.62 -62.55)"/><path class="cls-1" d="M515.72,95.59a.89.89,0,0,1-.44-1,1,1,0,0,1,1.15-.81c.62,0,1.27.21,1.2,1S517.05,95.74,515.72,95.59Z" transform="translate(-154.62 -62.55)"/><path class="cls-1" d="M645.3,164.31c-.14.74-.32,1.26-1,1.26a1.14,1.14,0,0,1-1.2-1.11.89.89,0,0,1,.93-1A1.26,1.26,0,0,1,645.3,164.31Z" transform="translate(-154.62 -62.55)"/><path class="cls-1" d="M515.74,284.35c.08-.8.14-1.75,1.07-1.88s1,1,1.52,1.39C517.44,283.88,516.84,285.44,515.74,284.35Z" transform="translate(-154.62 -62.55)"/><path class="cls-1" d="M254.51,522.5a1,1,0,0,1-1.37-.82.91.91,0,0,1,.72-1.2c.71-.14,1.14.32,1.27,1A.85.85,0,0,1,254.51,522.5Z" transform="translate(-154.62 -62.55)"/><path class="cls-1" d="M490.44,369.58l.59-.52a6.55,6.55,0,0,1,3.35,1.41l-1.31.59C492.09,370.75,490.8,371,490.44,369.58Z" transform="translate(-154.62 -62.55)"/><path class="cls-1" d="M497.81,361.68l.57-.48c.73.5,1.83.43,2.19,1.46a.46.46,0,0,1-.25.4C499.15,363.23,498.48,362.45,497.81,361.68Z" transform="translate(-154.62 -62.55)"/><path class="cls-1" d="M608.72,180.78c.2,0,.61.26.61.89a.67.67,0,0,1-.86.68c-.5-.08-1.11-.23-1.09-.83C607.38,181.13,607.83,180.83,608.72,180.78Z" transform="translate(-154.62 -62.55)"/><path class="cls-1" d="M272.05,485.14a1.2,1.2,0,0,1,.78,1.23.66.66,0,0,1-.87.67.87.87,0,0,1-.68-1A.93.93,0,0,1,272.05,485.14Z" transform="translate(-154.62 -62.55)"/><path class="cls-1" d="M390.58,228.59c.34-.86-.67-1.71,0-2.58C392.24,228.3,392.24,228.3,390.58,228.59Z" transform="translate(-154.62 -62.55)"/><path class="cls-1" d="M363.88,408.92l-1,.42a2.17,2.17,0,0,1-1.53-1A2.92,2.92,0,0,1,363.88,408.92Z" transform="translate(-154.62 -62.55)"/><path class="cls-1" d="M491.07,375.29l1.17-.43c-.4.82.79,1.21.56,2.05C491.76,376.81,491.56,375.89,491.07,375.29Z" transform="translate(-154.62 -62.55)"/><path class="cls-1" d="M497.5,373.83c.43-1.23,1.94-.19,2.49-1.17.61.31.77.71,0,.91A18.44,18.44,0,0,1,497.5,373.83Z" transform="translate(-154.62 -62.55)"/><path class="cls-1" d="M494.09,435.11c-1.15-.58-1.08-1.45-.79-2.64C493.9,433.38,494.42,434.08,494.09,435.11Z" transform="translate(-154.62 -62.55)"/><path class="cls-1" d="M510.61,313.81v0c.2,1.19-.93,1.45-1.62,2.8C508.92,314.7,509.6,314.14,510.61,313.81Z" transform="translate(-154.62 -62.55)"/><path class="cls-1" d="M492.93,377.93c1.59-.08,1.68.76,2.16,1.44C493.67,379.63,493.84,378.53,492.93,377.93Z" transform="translate(-154.62 -62.55)"/><path class="cls-1" d="M370.54,395.41c-.74-.12-1.59-.06-2-1C369.58,394.07,370.11,394.64,370.54,395.41Z" transform="translate(-154.62 -62.55)"/><path class="cls-1" d="M365,264.19c-.1.62.15,1.37-.59,1.79,0-.66-.1-1.31-.08-2,0-.17.26-.34.39-.5Z" transform="translate(-154.62 -62.55)"/><path class="cls-1" d="M535.23,330.21c0,.31-.41.53-.76.77-.07,0-.5-.2-.53-.36-.11-.56.47-.67.77-.93S535.17,329.68,535.23,330.21Z" transform="translate(-154.62 -62.55)"/><path class="cls-1" d="M375.34,264.44l-.2,0-.21,0a4,4,0,0,1,.21-2.4A3.51,3.51,0,0,1,375.34,264.44Z" transform="translate(-154.62 -62.55)"/><path class="cls-1" d="M509.49,326.92c-.64-.32-1.18-.71-1.11-1.54C509.68,325.22,509.19,326.36,509.49,326.92Z" transform="translate(-154.62 -62.55)"/><path class="cls-1" d="M531.55,266.44c-2.26.52-3.43,2.49-4.95,3.92-2.73,2.58-5.2,5.41-7.86,8.06-.48.49-1.1,1.16-2,.89-.43-.15-.73-.38-.51-.9,2.15-3.35,4-6.94,7.06-9.61a9.46,9.46,0,0,0,3.06-3.81,1.82,1.82,0,0,1,2.64-1.28c1.31.54,3,.64,2.51,2.8Z" transform="translate(-154.62 -62.55)"/><path class="cls-1" d="M418.64,381.54a3.56,3.56,0,0,0,2-2.73c.44.66,1,1.23.89,1.38-1.6,2.46.18,4,1.31,5.9.67,1.1-.43,2.19-1.21,2.78a12.34,12.34,0,0,0-4.09,4.74,27,27,0,0,1,.5-3.83c.32-2.1.39-4.67-1.24-6.31-1.81-1.81-.12-2.08.77-2.84C418.47,380.33,418.06,381.49,418.64,381.54Z" transform="translate(-154.62 -62.55)"/><path class="cls-1" d="M458.44,268.13c.05.64.1,1.28.16,1.93l0,0c-2.12-.76-1.65,1.72-3,2.39.3-2.92-4.08-2.67-3.41-5.91a18.36,18.36,0,0,0,5.19-1.05C458.34,266.11,458.16,267.21,458.44,268.13Z" transform="translate(-154.62 -62.55)"/><path class="cls-1" d="M490.44,369.58c.71.8,2.08.4,2.63,1.48-.61.89.28.86.69,1.09.87.46.34,1,.09,1.5s-.81.81-1.26.41c-1.41-1.25-3.55-1.21-4.74-2.82-.49-.66-1.52-1.11-.9-2.14s1.32.09,2,.12A8.07,8.07,0,0,1,490.44,369.58Z" transform="translate(-154.62 -62.55)"/><path class="cls-1" d="M383.64,335.39c2,2.05,3,4.31,4.29,6.46C381.79,342.5,381.93,340.94,383.64,335.39Z" transform="translate(-154.62 -62.55)"/><path class="cls-1" d="M516.21,278.41l.51.9c-.29,1.75-1.63,2.8-2.75,4-.37.38-.88.73-1.25,0-.23-.45-1.13-1-.26-1.49C514,281,514.37,278.89,516.21,278.41Z" transform="translate(-154.62 -62.55)"/><path class="cls-1" d="M464.29,397.9c.11-1.29,1-2.63-.34-3.83-.34-.3-.18-.84.19-1.16s.81,0,1.17.18c1.17.67,2,1.94,1.7,3a3.09,3.09,0,0,1-2.76,1.75Z" transform="translate(-154.62 -62.55)"/><path class="cls-1" d="M501,325.21c-1.71-.13-2.23-.81-2.1-2,.05-.43.41-1.42.67-.92.61,1.15,3-.92,2.53,1.53C501.91,324.69,501.93,325.75,501,325.21Z" transform="translate(-154.62 -62.55)"/><path class="cls-1" d="M521.54,267l3.51-4.22c.3,3-1.37,3.86-3,4.76C521.57,267.65,521.32,267.55,521.54,267Z" transform="translate(-154.62 -62.55)"/><path class="cls-1" d="M339.78,302.07c.85-.19,1.32-.08,1.13,1s-1,1.23-1.9,1.27-1.08-.44-.76-1.14S338.43,301.22,339.78,302.07Z" transform="translate(-154.62 -62.55)"/><path class="cls-1" d="M457.91,265.42c1.33,0,3-.43,2.65,1.89-.25,1.72-.94,1.32-1.7.28A2.14,2.14,0,0,1,457.91,265.42Z" transform="translate(-154.62 -62.55)"/><path class="cls-1" d="M382.23,344.72a3.43,3.43,0,0,1,4.42.76C384.8,346.51,383.54,345.47,382.23,344.72Z" transform="translate(-154.62 -62.55)"/><path class="cls-1" d="M412.34,380.22a9.94,9.94,0,0,1,4.15-1.16C415.23,380.47,414.22,381.86,412.34,380.22Z" transform="translate(-154.62 -62.55)"/><path class="cls-1" d="M518.3,269.48c-.47,2.08-2,1.83-3.51,1.89C515.41,269.4,517.33,270.34,518.3,269.48Z" transform="translate(-154.62 -62.55)"/><path class="cls-1" d="M487,372.71c.56,1.85-1.54.61-1.84,1.56-.07.22-.73.1-.78-.3a1.1,1.1,0,0,1,1.15-1.37A1.25,1.25,0,0,1,487,372.71Z" transform="translate(-154.62 -62.55)"/><path class="cls-1" d="M407.5,383.18c.42-2,1.46-2.25,2.57-2.34.3,0,.37.25.3.53C410,382.71,408.62,382.05,407.5,383.18Z" transform="translate(-154.62 -62.55)"/><path class="cls-1" d="M403.57,382.59c.33-.29.39-.39.44-.39,1,.11,1.83-1,2.85-.29a.5.5,0,0,1,0,.46C405.87,383.06,404.81,382.88,403.57,382.59Z" transform="translate(-154.62 -62.55)"/><path class="cls-1" d="M521.54,267l.51.54c-.6.85-.91,2-2.76,2.16Z" transform="translate(-154.62 -62.55)"/><path class="cls-1" d="M501.87,319.26a1.62,1.62,0,0,1-.27,2.4C500.58,320.69,501.87,320,501.87,319.26Z" transform="translate(-154.62 -62.55)"/><path class="cls-1" d="M487,372.71l-1.47-.11c.41-.46-.13-1.85,1.19-1.37C487.26,371.44,487.86,372,487,372.71Z" transform="translate(-154.62 -62.55)"/><path class="cls-1" d="M457.91,265.42c.31.73.63,1.45.95,2.17l-.42.54c-1.05-.61-.62-1.82-1.07-2.67Z" transform="translate(-154.62 -62.55)"/><path class="cls-1" d="M345.68,298.63c0,.43-.17.67-.59.65-.69,0-.77-.55-.82-1.07,0-.35,0-.7.5-.66C345.44,297.61,345.39,298.28,345.68,298.63Z" transform="translate(-154.62 -62.55)"/><path class="cls-1" d="M505.2,326.46a1.07,1.07,0,0,1,1.06.9c0,.17-.2.55-.32.56a1.24,1.24,0,0,1-1.26-.73A.56.56,0,0,1,505.2,326.46Z" transform="translate(-154.62 -62.55)"/><path class="cls-1" d="M466,268.78c-.71.25-1.15.41-1.6.55s-.45-.16-.43-.41a.8.8,0,0,1,1-.81C465.23,268.16,465.47,268.44,466,268.78Z" transform="translate(-154.62 -62.55)"/><path class="cls-1" d="M458.6,270.06l.93,2.73a.35.35,0,0,1-.59,0c-1.14-.81-.39-1.84-.31-2.79Z" transform="translate(-154.62 -62.55)"/><path class="cls-1" d="M418.64,381.54c-.88.3-.8-.49-1-.91l.48-1.57.34.1Z" transform="translate(-154.62 -62.55)"/><path class="cls-1" d="M451.52,268.32c0,.2,0,.51-.41.4a.63.63,0,0,1-.48-.75c0-.25.13-.48.45-.4A.54.54,0,0,1,451.52,268.32Z" transform="translate(-154.62 -62.55)"/><path class="cls-1" d="M512.14,227.54c.5,0,.86.25.87.75,0,.07-.44.28-.59.21a1.49,1.49,0,0,1-.72-.63C511.61,227.65,511.88,227.47,512.14,227.54Z" transform="translate(-154.62 -62.55)"/><path class="cls-1" d="M458.94,272.82l.59,0c.38,0,.89-.21,1.05.35,0,.16-.15.56-.26.57A1.48,1.48,0,0,1,458.94,272.82Z" transform="translate(-154.62 -62.55)"/><path class="cls-1" d="M533.76,256l-.46-.39c.16-.15.32-.43.47-.43a.72.72,0,0,1,.51.41C534.4,255.87,534.08,255.89,533.76,256Z" transform="translate(-154.62 -62.55)"/></svg>