<svg id="Layer_1" data-name="Layer 1" xmlns="http://www.w3.org/2000/svg" viewBox="0 0 283.15 71.53"><defs><style>.cls-1{fill:#454546;}.cls-2{fill:#151e11;}</style></defs><path class="cls-1" d="M284.74,432c-7.49.17-12.16-2.84-14.86-8.63a8.75,8.75,0,0,0-5.16-4.85c-18.1-7.32-36.14-14.79-54.17-22.28a7.36,7.36,0,0,0-6.13-.17,14.9,14.9,0,0,1-19.55-7.78,15.35,15.35,0,0,1,6.44-19.8,15,15,0,0,1,20.66,5.9,13.89,13.89,0,0,0,7.88,6.74c17.2,6.91,34.31,14.06,51.46,21.12,5.05,2.08,12.33-.1,15.53-4.63,2.59-3.67,5-7.44,7.78-11a18.38,18.38,0,0,0,3.9-9c1.42-10.27,10.91-17.6,21.25-17.16A21.26,21.26,0,0,1,340.35,381c.28,10.46-7.36,19.38-18.09,21.07a14.79,14.79,0,0,0-6.84,2.73c-3.84,2.9-7.8,5.64-11.75,8.38-2.76,1.92-4.8,3.78-5.28,7.75C297.61,427.43,290.82,432,284.74,432Z" transform="translate(-183.47 -360.51)"/><path class="cls-1" d="M462.4,381.38c-5.64,6.92-5.64,6.92-10.5.48-1.4,2.42-.53,4.88-.68,7.19-.11,1.55,0,3.09-2.27,3-1.87-.05-2.07-1.34-2.07-2.73,0-5.48,0-11,0-16.44,0-1.29,0-2.74,1.93-2.88a2.94,2.94,0,0,1,3.21,1.77,18.1,18.1,0,0,0,1.21,2.72c1.29,1.87,1.31,5.48,3.5,5.56,2.42.1,2.36-3.52,3.58-5.4.71-1.1,1.23-2.34,1.86-3.51s1.87-1.25,3-1.05,1.27,1.38,1.28,2.34c.07,5.64.13,11.29.1,16.93,0,1.29-.09,2.79-2.07,2.68-1.72-.1-2.17-1.18-2.15-2.71C462.42,387.06,462.4,384.76,462.4,381.38Z" transform="translate(-183.47 -360.51)"/><path class="cls-1" d="M397.56,380.83c0-11.6,0-11.6,11.47-10.84,1.47.1,3.29-.21,3.15,2.07s-2,1.61-3.4,1.91c-2.45.53-6.6-2-7,2.09-.52,4.83,3.95,2.39,6.29,2.89,1.22.26,2.32.29,2.35,1.89s-.83,2.05-2.19,2.07c-1,0-2,0-3,0-1.94-.07-3.74-.09-3.69,2.68s2.07,2.28,3.84,2.6c2.33.42,6.63-1.82,6.59,1.8,0,4-4.46,1.38-6.86,2-1.1.28-2.34-.08-3.47.09-3.46.52-4.38-1.12-4.09-4.28C397.74,385.5,397.56,383.16,397.56,380.83Z" transform="translate(-183.47 -360.51)"/><path class="cls-1" d="M422.23,392.07c-2.61,0-2.22-1.45-1.77-2.72,2-5.59,4-11.17,6.11-16.71.44-1.17.9-2.58,2.6-2.62s2.3,1.22,2.76,2.43c2.11,5.55,4.15,11.12,6.18,16.69.34.92.82,2-.23,2.69a2.5,2.5,0,0,1-3.2-.37c-3.54-5.23-6.95-5.08-10.61-.17C423.67,391.83,422.64,391.91,422.23,392.07Z" transform="translate(-183.47 -360.51)"/><path class="cls-1" d="M357.57,392.34a10,10,0,0,1-1.75-.24c-2.05-.6-5.58-.25-5.06-3.25.55-3.2,3.38-1,5.31-.77,2.27.27,5.27.89,5.66-2.24.37-3-2.62-2.74-4.68-3-3.22-.47-5.75-1.9-6.31-5.35a6,6,0,0,1,3.79-6.85,10.35,10.35,0,0,1,9.53.62,2.09,2.09,0,0,1,.65,1.69,1.63,1.63,0,0,1-1.69,1.51,14.77,14.77,0,0,1-2.87-.63c-2.07-.46-4.33-.57-4.84,1.94-.58,2.85,1.92,3,3.89,3.24,4.3.52,7.33,2.25,6.89,7.22C365.75,390,362.51,392.32,357.57,392.34Z" transform="translate(-183.47 -360.51)"/><path class="cls-1" d="M378.3,383.15c0-1.82,0-3.65,0-5.47.06-2.19-.15-4.06-3.12-3.79-1.37.12-2.75-.05-2.79-1.93s1.44-1.94,2.77-1.95c3.64,0,7.28,0,10.92,0,1,0,2.05.24,2.18,1.51s-.63,2.44-1.95,2.3c-4.31-.45-3.84,2.42-3.8,5.12s.17,5.65-.07,8.45c-.15,1.65,1.45,4.47-1.91,4.61s-2-2.68-2.19-4.39A44.38,44.38,0,0,1,378.3,383.15Z" transform="translate(-183.47 -360.51)"/><path class="cls-2" d="M333.11,381.5c.13,7.21-6.81,14.35-13.91,14.32s-14.21-6.75-14.39-13.93,6.29-14.13,13.73-14.42C326.14,367.17,333,373.75,333.11,381.5Z" transform="translate(-183.47 -360.51)"/><path class="cls-2" d="M280,405.73c8.16-1.28,13.58,2.19,15.28,8.36,1.49,5.41-1.68,11.53-7.15,13.79s-10.61.59-13.94-5.1c6.51,2.22,13.38,5.6,16.83-2.83C294.57,411.35,287,409.17,280,405.73Z" transform="translate(-183.47 -360.51)"/><path class="cls-2" d="M201,393c-6.71,1.33-12.43-2.44-13.88-8.28s2.19-12.07,8.17-14.05c5.37-1.77,10.52.24,12.9,5.65-6.42-2.65-13.21-5.87-16.85,2.37C187.53,387.35,194.89,389.94,201,393Z" transform="translate(-183.47 -360.51)"/><path class="cls-2" d="M431.25,381.83c.32,1.61-.17,2.59-1.61,2.7-1.2.1-2.53-.25-2.33-1.82s.18-3.79,2.23-3.85C430.9,378.81,430.87,380.86,431.25,381.83Z" transform="translate(-183.47 -360.51)"/><path class="cls-1" d="M329.58,381.51A10.49,10.49,0,0,1,319.24,392a10.46,10.46,0,1,1-.09-20.92A10.54,10.54,0,0,1,329.58,381.51Z" transform="translate(-183.47 -360.51)"/></svg>