<?xml version="1.0" encoding="utf-8"?>
<!-- Generator: Adobe Illustrator 24.3.0, SVG Export Plug-In . SVG Version: 6.00 Build 0)  -->
<svg version="1.1" id="Layer_1" xmlns="http://www.w3.org/2000/svg" xmlns:xlink="http://www.w3.org/1999/xlink" x="0px" y="0px"
	 viewBox="0 0 536.6 146.2" style="enable-background:new 0 0 536.6 146.2;" xml:space="preserve">
<style type="text/css">
	.st0{fill:#444445;}
	.st1{fill:#151616;}
	.st2{fill:#151E11;}
</style>
<path class="st0" d="M258,0.8c84.7,0,169.5,0,254.2-0.1c3.2,0,3.7,1,3.7,3.9c-0.1,46-0.1,92.1,0,138.1c0,3.1-0.9,3.5-3.7,3.5
	c-169.5-0.1-338.9-0.1-508.4,0c-3,0-3.8-0.7-3.8-3.8c0.1-46,0.1-92.1,0-138.1C0,1,1,0.5,4.1,0.5c84.6,0.1,169.2,0.1,253.9,0.1
	L258,0.8z"/>
<path class="st1" d="M528.1,0c4.7,0,8.5,3.8,8.5,8.5c0,4.7-3.7,8.5-8.4,8.7c-4.7,0-8.6-3.8-8.7-8.5C519.5,3.9,523.3,0,528.1,0z"/>
<path class="st2" d="M257.7,131.4c-79.6,0-159.2,0-238.8,0.1c-3.2,0-4.1-0.7-4.1-4c0.1-36,0.1-72,0-107.9c0-2.8,0.6-3.5,3.4-3.5
	c159.7,0.1,319.4,0.1,479.2,0c2.7,0,3.5,0.5,3.5,3.4c-0.1,36-0.1,72,0,107.9c0,3.1-0.6,4.1-3.9,4.1
	C417.3,131.3,337.5,131.3,257.7,131.4z"/>
<path class="st2" d="M523.9,14.1c-3.8-2.4-3.3-8.3-0.5-10.8c2.6-2.6,6.8-2.5,9.3,0.1c0,0,0,0,0,0c3,3,2.6,7.8-0.8,10.9
	c-0.3-0.1-0.6-0.4-0.8-0.6c-0.9-2.1-1.9-4.2-1-6.7c0.4-1.1-0.3-2-1.6-1.9s-2.8-0.8-3.1,1.5s0.3,4.7-0.4,7
	C524.8,13.9,524.5,14.3,523.9,14.1z"/>
<path class="st2" d="M523.9,14.1l0.8-0.9c0.5-0.4,0.9-1,0.9-1.7c0.3-1.2,0.5-2.5,2.1-2.5c1.4,0,2.1,1.1,2.6,2.2
	c0.3,0.8,0.4,1.8,1.5,2l0.2,1C529.3,16.4,526.6,16.2,523.9,14.1z"/>
<path class="st0" d="M137.6,116.1c4.1-14.6,8.2-28.8,12.2-43c3.7-13,7.5-26,11.1-39.1c0.6-2.4,1.5-3.4,4.2-3.3
	c5.8,0.3,11.6,0.2,17.4,0c1.9,0,2.7,0.5,3.3,2.3c7.6,26.9,15.2,53.9,22.9,80.8c0.7,2.3,0.4,2.9-2,2.8c-4-0.2-8.1-0.2-12.1,0
	c-2.2,0.1-2.9-0.8-3.3-2.6c-1.4-5.5-2.9-11-4.3-16.5c-0.4-1.7-1.1-2.5-3.1-2.5c-6.9,0.2-13.9,0.1-20.8,0c-1.9,0-2.6,0.5-3.1,2.5
	c-1.3,5.5-2.9,11-4.2,16.5c-0.3,1.4-0.7,2.1-2.3,2.1C148.4,116.1,143.1,116.1,137.6,116.1z"/>
<path class="st0" d="M45.2,30.9c5.3,0,10.2,0.1,15.1-0.1c2.2-0.1,2.2,1.4,2.5,2.7c4.1,16.1,8.3,32.3,12.4,48.4
	c1,4.1,2.2,8.2,3.7,12.2c1.9-7.4,3.8-14.8,5.6-22.2c3.2-12.8,6.3-25.7,9.5-38.5c0.4-1.8,1.1-2.8,3.3-2.7c4.1,0.2,8.3,0.2,12.4,0
	c2.5-0.1,2.7,0.5,2,2.8C106,52,100.4,70.3,94.9,88.7c-2.6,8.5-5.1,17-7.7,25.5c-0.5,1.6-1.1,2.6-3.2,2.5c-3.5-0.3-6.9-0.3-10.4,0
	c-2.4,0.2-3.2-0.8-3.8-2.9C62.9,90.5,56,67.3,49,44.2C47.8,39.9,46.5,35.5,45.2,30.9z"/>
<path class="st0" d="M391.9,30.9c-3.1,10.3-6.1,20.3-9.1,30.2c-5.3,17.4-10.7,34.8-15.8,52.3c-0.8,2.7-1.9,3.5-4.6,3.3
	c-3.1-0.2-6.3-0.2-9.4,0c-1.7,0-2.5-0.3-3-2.2c-8.4-27.7-16.8-55.4-25.4-83.6c5.6,0,10.9,0,16.1,0c1.9,0,1.7,1.6,1.9,2.5
	c5,19.1,10,38.3,14.9,57.4c0.3,1,0.6,1.9,1,3.5c4-15.9,7.9-31.1,11.7-46.4c1.3-5.1,2.6-10.1,3.8-15.2c0.3-1.3,0.7-1.9,2.1-1.9
	C381.4,30.9,386.5,30.9,391.9,30.9z"/>
<path class="st0" d="M268.2,66.7c0,10.8,0.1,21.7-0.1,32.5c0,2.4,0.7,2.9,3,2.9c10.1-0.1,20.1,0,30.2-0.1c2,0,2.8,0.3,2.7,2.5
	c-0.2,3.3-0.1,6.7,0,10c0,1.6-0.4,2.1-2,2.1c-16.2-0.1-32.4-0.1-48.6,0c-1.8,0-2.3-0.6-2.3-2.3c0.1-27.1-0.7-54.3,0.5-81.5
	c0.1-1.6,0.5-2.1,2.1-2c4,0.1,8,0.2,12.1,0c2.1-0.1,2.6,0.6,2.6,2.7C268.2,44.5,268.2,55.6,268.2,66.7z"/>
<path class="st0" d="M427.9,59.9c0-8.8,0-17.6,0-26.5c0-2,0.4-2.7,2.5-2.6c10.2,0.1,20.3,0.1,30.5,0c2.1,0,2.6,0.6,2.6,2.6
	c0.1,8.7,0.1,8.7-8.6,8.7c-4,0-8,0.1-12.1,0c-1.9-0.1-2.9,0.3-2.7,2.5c0.3,3.1-1,7.1,0.6,9.1s5.9,0.5,8.9,0.6c3.2,0.1,6.5,0.1,9.7,0
	c1.6,0,2,0.5,2.1,2.1c0.5,9.2,0.5,9.2-8.5,9.2c-3.6,0-7.2,0.1-10.7,0c-1.6,0-2.2,0.5-2.1,2.1c0.1,2.7,0.1,5.3,0,8
	c-0.1,2.1,0.6,2.7,2.7,2.6c6-0.1,12.1,0,18.1-0.1c2.1,0,2.6,0.5,2.6,2.6c0.1,8.5,0.1,8.5-8.1,8.5c-8.5,0-17-0.1-25.5,0
	c-2.1,0-2.6-0.5-2.6-2.6c0.1-8.9,0.1-17.9,0.1-26.8L427.9,59.9z"/>
<path class="st0" d="M531.8,13.2c-1.8,0.9-1.9-0.5-2.2-1.7s-0.7-2.2-2.1-2c-1.6,0.2-0.9,1.5-0.9,2.3c0,1.5-0.5,2.1-1.9,1.4
	c0-2.3,0.2-4.7,0.1-7c-0.2-3.1,2-2.3,3.6-2.3c1.9,0,3.7,1,2.8,3C530.1,9.3,531.4,11.1,531.8,13.2z"/>
<path class="st2" d="M173.4,46.4c3,10.9,5.8,21.5,8.9,32c0.7,2.5,0.4,3.3-2.4,3.2c-4.4-0.2-8.9-0.1-13.4,0c-1.7,0-2.5-0.3-2-2.2
	c2.7-10.6,5.4-21.3,8-31.9C172.7,47.1,173,46.9,173.4,46.4z"/>
<path class="st2" d="M529.8,6.7c-0.4,1.4-1.4,1.5-2.4,1.5c-1.3,0-0.8-1-0.9-1.7c0-0.9,0.1-1.6,1.3-1.4S529.7,5.6,529.8,6.7z"/>
</svg>
