<svg id="Layer_1" data-name="Layer 1" xmlns="http://www.w3.org/2000/svg" viewBox="0 0 441.49 87.45"><defs><style>.cls-1{fill:#d1d1d3;}.cls-2{fill:#c3c3c4;}.cls-3{fill:#cbcacc;}.cls-4{fill:#1d9446;}.cls-5{fill:#6c6c6c;}.cls-6{fill:#c4c4c5;}.cls-7{fill:#bbbbbc;}.cls-8{fill:#bfbec0;}.cls-9{fill:#c5c5c6;}.cls-10{fill:#c3c2c4;}.cls-11{fill:#cac9cb;}.cls-12{fill:#d0d0d1;}.cls-13{fill:#bababb;}.cls-14{fill:#279c48;}.cls-15{fill:#259147;}.cls-16{fill:#2e9248;}.cls-17{fill:#c1b9c4;}.cls-18{fill:#d9d8d9;}.cls-19{fill:#e0e0e0;}.cls-20{fill:#b5b5b6;}.cls-21{fill:#adaead;}.cls-22{fill:#35a349;}.cls-23{fill:#f6f6f5;}.cls-24{fill:#2a9f48;}.cls-25{fill:#1c9547;}.cls-26{fill:#ededec;}.cls-27{fill:#229a48;}.cls-28{fill:#e5e5e3;}.cls-29{fill:#218f45;}.cls-30{fill:#1b7d3e;}.cls-31{fill:#1a7d3e;}.cls-32{fill:#1b7c3e;}.cls-33{fill:#6d6d6d;}.cls-34{fill:#d1d1d1;}.cls-35{fill:#1d8e45;}.cls-36{fill:#1c9246;}.cls-37{fill:#c9c9ca;}.cls-38{fill:#209847;}.cls-39{fill:#38a549;}.cls-40{fill:#b8b8ba;}.cls-41{fill:#3aa04b;}.cls-42{fill:#3ba849;}.cls-43{fill:#4cb249;}.cls-44{fill:#219847;}.cls-45{fill:#1b9046;}.cls-46{fill:#c3ccc1;}.cls-47{fill:#d2d3d5;}.cls-48{fill:#d4d0d8;}.cls-49{fill:#e8f1e6;}.cls-50{fill:#6d6c6c;}.cls-51{fill:#39a849;}.cls-52{fill:#3da44b;}.cls-53{fill:#b2b2b4;}.cls-54{fill:#45ad49;}.cls-55{fill:#249b48;}.cls-56{fill:#151e11;}.cls-57{fill:#e2e2e1;}.cls-58{fill:#e7e7e7;}.cls-59{fill:#d9d9d9;}.cls-60{fill:#d6d6d6;}.cls-61{fill:#dededd;}.cls-62{fill:#279347;}.cls-63{fill:#cac9ca;}.cls-64{fill:#43ad49;}.cls-65{fill:#1a9346;}.cls-66{fill:#36a649;}.cls-67{fill:#2ba048;}.cls-68{fill:#8dc241;}.cls-69{fill:#58b548;}.cls-70{fill:#218f46;}.cls-71{fill:#79bd43;}.cls-72{fill:#c6c5c6;}.cls-73{fill:#cacacb;}.cls-74{fill:#cfcfd0;}.cls-75{fill:#d4d5d6;}.cls-76{fill:#228f46;}.cls-77{fill:#c9cec8;}.cls-78{fill:#49b049;}.cls-79{fill:#4aaf49;}.cls-80{fill:#c2c1c3;}.cls-81{fill:#ebebeb;}.cls-82{fill:#efefee;}.cls-83{fill:#51b348;}.cls-84{fill:#83c042;}.cls-85{fill:#94c440;}.cls-86{fill:#f3f3f3;}.cls-87{fill:#1f8f45;}.cls-88{fill:#faf9f8;}.cls-89{fill:#6cba46;}.cls-90{fill:#7abf44;}.cls-91{fill:#67b946;}.cls-92{fill:#d7d7d7;}.cls-93{fill:#dee1de;}.cls-94{fill:#d3d3d4;}.cls-95{fill:#e1dfdf;}.cls-96{fill:#c4cac3;}.cls-97{fill:#cdc6cf;}.cls-98{fill:#55b548;}.cls-99{fill:#e2e1e1;}.cls-100{fill:#61b747;}.cls-101{fill:#73bd45;}.cls-102{fill:#75bc45;}.cls-103{fill:#f8f7f6;}.cls-104{fill:#e9e9e9;}.cls-105{fill:#dedbe0;}.cls-106{fill:#dbddda;}</style></defs><path class="cls-1" d="M110.15,346.24c2.86-.26,5.59-1.49,8.53-1.2,3.54.54,7.18.19,10.66,1.27a7,7,0,0,1,2.78,1.07,1.35,1.35,0,0,1-.87,1.62c-5.22-.91-10.46-1.82-15.79-1.3-3.26.31-6.6.48-9.37,2.62a3.07,3.07,0,0,1-.79.44,28.65,28.65,0,0,0-3.79.79,1.8,1.8,0,0,1-1.64-.34c0-.24,0-.47,0-.71Z" transform="translate(-77.85 -344.99)"/><path class="cls-2" d="M132,347.46c-.84-.09-1.79.28-2.43-.61.17-1.51,1.1-.8,1.85-.62h1.19c3.52,1.26,7.28,1.9,10.35,4.25-.59.73-1.5.74-2.29,1.05s-1.34.41-2,.55a1.69,1.69,0,0,1-1.22-.25C136.66,349.13,133.62,349.19,132,347.46Z" transform="translate(-77.85 -344.99)"/><path class="cls-3" d="M131.46,346.23c-.67,0-1.41-.1-1.85.62L118.68,345l5.48-.05A20,20,0,0,1,131.46,346.23Z" transform="translate(-77.85 -344.99)"/><path class="cls-4" d="M147.37,352.9a3.87,3.87,0,0,0,1.66,1.89c.08,1.27-.86,1.29-1.72,1.41-1.79-1.14-3.87-1-5.85-1.3-5.48-.94-10,1.84-14.65,3.88a3.48,3.48,0,0,1-2.42.48,4.93,4.93,0,0,1-1-2.46c1.27-2,3.68-2,5.45-3.1a29.54,29.54,0,0,1,3.54-1.33c.66-.21,1.32-.42,2-.6a19.7,19.7,0,0,1,2.43-.48,1.29,1.29,0,0,1,.76.3l1.18.07c1.72-.2,3.43-1.06,5.17,0l2.72.72Z" transform="translate(-77.85 -344.99)"/><path class="cls-5" d="M488.39,377.18c-.05,2.22,0,4.45-.16,6.66-.14,1.91.62,2.4,2.44,2.38,7.29-.08,14.59-.07,21.88,0,4.92,0,4.42-.89,4.35,4.56,0,.3,0,.6-.06.91-8.48,0-17,0-25.44.08-1,0-2.22-.65-3,.6.89,1.11.83,2.42.82,3.73-.13,3.3.12,6.6,0,9.9-.07,2.14.76,3.12,3,3.06,2.4-.08,4.81-.07,7.22,0,2.88-.14,5.76-.05,8.64-.05a4.73,4.73,0,0,1,3.36.94c.8.05,1.61.13,2.41.13,5.4,0,5.4,0,5.49,5.32-2.59.93-5.3,0-7.91.55-1.72,1.47-3.81.93-5.77,1s-4.2.09-6.3,0c-4,.08-8.07.1-12.11,0-1.7-.08-3.53.49-4.92-1.05-.08-8.27-.19-16.55-.23-24.82s.06-16.57-.05-24.85c0-2.27.49-3.12,3-3.09,10,.15,20,.17,30.06-.05,3-.06,4.35.68,3.73,3.79a15.41,15.41,0,0,0-.16,1.81c-9.31,0-18.63,0-27.94,0-1.88,0-3,.32-2.37,2.51A5.44,5.44,0,0,1,488.39,377.18Z" transform="translate(-77.85 -344.99)"/><path class="cls-6" d="M78.54,381.43l.6-4.25c1.2-4,3.24-7.66,4.92-11.47l2.35-3.12c-.13-1,.43-1.42,1.37-1.44,1.51,1,.84,2.15-.22,2.78-.84.51,0,.69-.06,1,.09,2.79-1.8,4.86-2.77,7.23-2.44,5.89-2.41,11.92-2.12,18.07.26,5.56,2.84,10.21,5.49,14.86a7.88,7.88,0,0,1-.86,4.86,1.26,1.26,0,0,1-.95.27c-1.47-.63-1.84-2.11-2.4-3.35-3.1-6.84-5.39-13.89-5-21.56A8,8,0,0,0,78.54,381.43Z" transform="translate(-77.85 -344.99)"/><path class="cls-7" d="M99.23,426.32,98,425.79a1.41,1.41,0,0,0-.54-.11c-1.3-.77-3.25-.85-3.27-3,.74-1.18,1.11-2.41.09-3.59-1.48-1.71-.19-4.1-1.52-5.83a1.23,1.23,0,0,1-.46-1.45c1-1.09,1.34-2.77,3-3.25a3.2,3.2,0,0,1,3,2.36c2,2.13,4.2,3.69,7.23,3.89a2.43,2.43,0,0,1,2.51,1.8c.31,1.49-.84,2.1-1.9,2.71-1.32.75-2.79,1.15-4.13,1.82s-2.08,1.64-1,3.12c.41.54,1.79.68.91,1.76A2,2,0,0,1,99.23,426.32Z" transform="translate(-77.85 -344.99)"/><path class="cls-8" d="M99.23,426.32a3.71,3.71,0,0,0,2.76-.94A2.17,2.17,0,0,1,99.68,423a2.68,2.68,0,0,1,2.27-2.73c1.42-.42,2.73-1.21,4.13-1.73.81-.3,1.63-.61,1.52-1.58a1.79,1.79,0,0,0-2-1.42c-3.6.12-5.91-2-8.17-4.33C98,409,99.55,409.5,101,410a42,42,0,0,0,11.81,2.32,33.06,33.06,0,0,0,24.75-8.43,9.55,9.55,0,0,1,5.23-2.76c1.54.24,2.12,1.54,2.91,2.62a2.16,2.16,0,0,1,.08,1.28c-.56,1.5-2.64,1.95-2.66,3.83a89.48,89.48,0,0,1-10.88,8.71,5.27,5.27,0,0,1-.84.3c-6.21,1.56-12.31,3.55-18.69,4.47a26.66,26.66,0,0,1-6,.18c-2.26-.18-2.66.6-1.62,2.65.59,1.16,1.34,2.26,1.85,3.45s-.28,1.13-1.1.75A15,15,0,0,1,99.23,426.32Z" transform="translate(-77.85 -344.99)"/><path class="cls-9" d="M125.34,432.38l-7.9.06-7.27-1.21L107.09,430c.73-.92.44-1.77,0-2.78-1-2.53,0-4,2.65-4.46a15.41,15.41,0,0,1,1.8-.14c7.21-.32,13.91-2.57,20.46-5.37h0c2.23-.52,3.57-2.56,5.68-3.28,1.11-.38,2.12-1.28,3.4-.52.39,2.09-1.35,2.59-2.6,3.47a64.72,64.72,0,0,1-13.92,6.9c-3.09,1-6.35,1-9.52,1.52-.87.15-2.06,0-2.29,1.07s1,1.3,1.77,1.67a38.21,38.21,0,0,0,8.84,3C124.19,431.21,125.34,431,125.34,432.38Z" transform="translate(-77.85 -344.99)"/><path class="cls-10" d="M132,417.23c-2.58,2.73-6.16,3.26-9.53,4.24a46.15,46.15,0,0,1-12.83,2c-3,0-3.14,2-.48,5.52l-2.11,1a1.38,1.38,0,0,1-1.24-.59c.22-1.38-.84-2.3-1.26-3.45s-1.84-2.05-1-3.16c1-1.39,2.59-1.43,4.37-1,3.44.85,6.72-.71,10-1.29,4-.7,7.77-2.11,11.67-3.15A11.24,11.24,0,0,1,132,417.23Z" transform="translate(-77.85 -344.99)"/><path class="cls-11" d="M125.34,432.38a56,56,0,0,1-12-3.84c-1-.46-2.21-.55-2-2.14.19-1.44,1.25-1.72,2.36-1.86,3.66-.45,7.33-.84,11-1.25a3.92,3.92,0,0,1,3.18-.45c1.33,1.64-.21,1.77-1.15,2a20,20,0,0,0-6.4,2.57,20.4,20.4,0,0,0,11.36.92c3.41-.61,6.77-1.08,9.71-3.19.86-.62,2.58-1.36,3.39.6a31.38,31.38,0,0,1-10.34,4.88A24.34,24.34,0,0,1,125.34,432.38Z" transform="translate(-77.85 -344.99)"/><path class="cls-12" d="M150.9,421.5,146,425.72l-1.18,0a4,4,0,0,0-4,.44c-6.48,3.83-13.46,3.73-20.57,2.52-.63-.11-1.2-.34-1.31-1s.42-1.11,1-1.33c2.33-.88,4.6-2,7.12-2.17a1.43,1.43,0,0,0,1.38-.88,14.8,14.8,0,0,1,4.68-2.59c4.72-2,9.3-4.3,12.47-8.58a2.52,2.52,0,0,1,2.55-1.23c1.62,1.51,1.66,3-.14,4.32-4.52,3.26-8.82,6.87-14.24,9,2.56.72,6.66-.42,9.84-2.51a57.88,57.88,0,0,0,5.82-4.77c1.8-.43,1.84,1.08,2.32,2.11a1.44,1.44,0,0,1,0,.77A2.8,2.8,0,0,0,150.9,421.5Z" transform="translate(-77.85 -344.99)"/><path class="cls-13" d="M86.46,414.22h-.63l-.6-.64a70.27,70.27,0,0,1-6-12.8c-.43-2.8-.87-5.61-1.31-8.41.37-3.64-.65-7.36.66-10.94,2,.48,1.22,2.13,1.17,3.23-.44,9.18,2.46,17.43,6.8,25.31A3.32,3.32,0,0,1,86.46,414.22Z" transform="translate(-77.85 -344.99)"/><path class="cls-14" d="M91.66,356.61l3.34-3,1.73-.88a14.87,14.87,0,0,0,1.94.68c5,.59,10,.77,14.71,2.71,1.24.51,2.55,1,1.82,2.78a1.79,1.79,0,0,1-.73.48c-5.37-1.4-10.75-2.75-16.36-2.66-1.78-.46-3,1.53-4.74,1.13C92.59,357.72,91.84,357.57,91.66,356.61Z" transform="translate(-77.85 -344.99)"/><path class="cls-15" d="M98,354.12a2,2,0,0,1-1.26-1.4c.81-1,2.18-.84,3.14-1.51l1.78-.16c1.34-.67,2.69.14,4,0a3.46,3.46,0,0,1,.91,0,25.62,25.62,0,0,1,3.09.83,71,71,0,0,1,9,3.58c1.06.55,2.27.94,2.8,2.18a1.73,1.73,0,0,1-.13,1.3c-2.25,1-3.74-.69-5.48-1.54C110.21,354.62,104.37,352.92,98,354.12Z" transform="translate(-77.85 -344.99)"/><path class="cls-16" d="M143.89,351.62l-5.17,0,1.87-.63a3.51,3.51,0,0,1,3,.13A2,2,0,0,1,143.89,351.62Z" transform="translate(-77.85 -344.99)"/><path class="cls-17" d="M143.59,351.16l-3-.13c.66-.82,1.58-.45,2.41-.54Z" transform="translate(-77.85 -344.99)"/><path class="cls-18" d="M136.9,351.6a3.77,3.77,0,0,1-2.44.62c-1.87-.51-3.49-1.68-5.4-2.12a25.43,25.43,0,0,0-16.82-.77c-2.26.64-4.51,1.53-7,1.15,2.1-3.73,6.1-3.13,9.29-3.48,5.65-.61,11.4-.44,16.87,1.67C134.88,348.57,136.51,349.44,136.9,351.6Z" transform="translate(-77.85 -344.99)"/><path class="cls-19" d="M105.28,350.48c7.33-2.5,14.69-4.32,22.44-1.86.81.26,1.52.45,1.89,1.26-1.27.84-2.59,0-3.88.13-5.22-1.15-10.34-.32-15.42.86a34.34,34.34,0,0,0-3.79.76l-.65-.07c-.41-.35-1.53.09-1.19-1.07Z" transform="translate(-77.85 -344.99)"/><path class="cls-3" d="M136.9,351.6c-1-2.42-3.76-1.74-5.46-2.93l.6-1.21c2,.12,3.45,1.32,5.08,2.19,1,.54.9,1.16.42,1.94Z" transform="translate(-77.85 -344.99)"/><path class="cls-18" d="M104.68,350.49l1.19,1.07-4.22-.51A3.28,3.28,0,0,1,104.68,350.49Z" transform="translate(-77.85 -344.99)"/><path class="cls-20" d="M158.25,364.94l.57.07,0,0a20.44,20.44,0,0,1,5.31,11.46c-.63,1.35-1.84,1.62-2.54.48-2.45-4-5.52-7.54-7.28-11.91a1.1,1.1,0,0,1,0-.59,1.9,1.9,0,0,1,1.95-.81C157.3,363.58,156.69,365.89,158.25,364.94Z" transform="translate(-77.85 -344.99)"/><path class="cls-21" d="M158.25,364.94c-.13.56-.23,1.59-.76,1.39-1-.37-.91-1.57-1.13-2.49-2.07-.83-3.28-3-5.6-3.49-1-.76-2.3-1-3.08-2a1,1,0,0,1,.21-.79,7,7,0,0,1,3.74-.94C153.84,359.39,156.87,361.52,158.25,364.94Z" transform="translate(-77.85 -344.99)"/><path class="cls-22" d="M151.63,356.62c-.9,1.26-2.33,1-3.57,1.23a1.86,1.86,0,0,1-2.21-.14,1.28,1.28,0,0,1-.57-1.23c.5-.75,1.1-1.13,2-.54l1.77-1.15C150.27,354.88,150.78,356,151.63,356.62Z" transform="translate(-77.85 -344.99)"/><path class="cls-23" d="M121.13,357.71c-3.56-2.46-7.74-3.57-11.62-5.34-.27-.44-1.05-.28-1.14-.84-.13-.75.58-.72,1-.77,4.6-.53,9.17-1.78,13.85-.66a8.65,8.65,0,0,0,2.1.2c3.06,0,3.64.62,3.69,3.87-1.59,1.5-4.06,1.35-5.6,2.95a1.83,1.83,0,0,1-1.23,1A1,1,0,0,1,121.13,357.71Z" transform="translate(-77.85 -344.99)"/><path class="cls-24" d="M147.26,355.94l-1.84.62a1.53,1.53,0,0,1-1.25.42,9.72,9.72,0,0,0-4.82.1,33.74,33.74,0,0,0-14,6.18c-1.85,1.46-3.72,1.83-5.81.32-1.47-1.06-3.3-1.53-4.81-2.58-.78-.55-1.64-1.11-.33-2H115l.39,0a16,16,0,0,1,2,0c.38.11,0-.2.29,0,3.41,2.66,6.58,1.47,9.71-.57,4.4-2.77,9.43-3.45,14.4-4.3C143.53,354.94,146,353.48,147.26,355.94Z" transform="translate(-77.85 -344.99)"/><path class="cls-25" d="M127.18,359c-.23.19-.45.38-.68.55-2.79,2-5.58,3.17-8.5.17-.2-.21-.76-.08-1.16-.11-.44-.69-1.23-.34-1.82-.61h0c-.2-3-2.92-2.32-4.62-3-4-1.58-8.27-1.22-12.41-1.87.55-1.6,1.83-.66,2.81-.83,5.88-1,10.9,1.5,16,3.83,1.42.65,2.88,1.24,4.32,1.86.34,0,.68,0,1,0,.67,0,1.33-.74,2,0l2.42-.6C127.21,358.13,127.32,358.43,127.18,359Z" transform="translate(-77.85 -344.99)"/><path class="cls-26" d="M129,354.17c-.66-2.05-1.63-2.54-4.13-3.06-5.14-1.06-10,.14-14.92,0-1.84-.06-.74.71-.46,1.29l-3-.74A30.52,30.52,0,0,1,126,349.28c1.44.71,3.06.78,4.55,1.3a3,3,0,0,1,2.12,2.23Z" transform="translate(-77.85 -344.99)"/><path class="cls-27" d="M127.18,359l-.62-.6c4.69-2.77,9.51-5.1,15.21-4.25-1.94,1.51-4.41,1-6.59,1.71C132.44,356.72,129.81,357.84,127.18,359Z" transform="translate(-77.85 -344.99)"/><path class="cls-28" d="M132.63,352.81c-1.73-2.11-4.69-1.9-6.67-3.53,1.29-.22,2.44.41,3.65.6,2.09-.2,3.57.88,4.85,2.34Z" transform="translate(-77.85 -344.99)"/><path class="cls-29" d="M124.14,359c-1-.5-1.26,1.88-2.45.61-.32-.79.19-1.32.61-1.87a1.09,1.09,0,0,1,1.12-.6C124.42,357.45,124.68,358.06,124.14,359Z" transform="translate(-77.85 -344.99)"/><path class="cls-30" d="M218.33,365.06a3,3,0,0,0,1.31-1.82,29.79,29.79,0,0,1,6.87-.1c.36,1.17-1,1.53-1,2.45-.93,3-3.15,5.09-4.88,7.52-1.93,2.71-4.07,5.26-5.89,8.05-1.25,1.68-2.54,3.33-3.78,5-.65.88-1.41,1.77-.58,2.95,2.91,4.28,6.14,8.33,9.07,12.59,2.36,3.22,4.84,6.34,7.16,9.58a8.53,8.53,0,0,1,1.44,2.93c0,.56,1.07,1.57-.23,1.58-2.78,0-6,1.07-7.82-2.22-2.22-1.25-3.16-3.58-4.64-5.46-1.79-2.29-3.53-4.64-5.31-6.94a16.24,16.24,0,0,0-2.6-3.61,12.41,12.41,0,0,1-1.21-1.69c-.77-1.12-1.55-1.07-2.36,0-1.33,1.72-2.67,3.44-3.88,5.25-1.61,2.28-3.37,4.45-5,6.74-1.71,1.82-2.63,4.33-4.9,5.67-1.49,3.2-4.52,2.14-7,2.52-1.1-.08-1.85-.39-1.13-1.69a6.82,6.82,0,0,1,1.27-2.52c2.24-3.48,5-6.59,7.29-10,1.59-2.26,3.32-4.41,4.92-6.67,1.5-1.93,2.88-3.95,4.25-6,.75-1.32,0-2.29-.75-3.26-1.34-1.75-2.64-3.52-4-5.26-.66-1.17-1.88-2-1.9-3.55l-9.9-13.86h7.21c1.24,2,2.36,4.08,4.2,5.63,3,2.38,4.78,5.82,7.13,8.75.29.41.55.84.85,1.25,2.49,3.4,2.49,3.4,5,0,.25-.33.52-.65.78-1,2.49-3.82,5.49-7.26,8-11A6.6,6.6,0,0,1,218.33,365.06Z" transform="translate(-77.85 -344.99)"/><path class="cls-31" d="M257.29,363.14a30.42,30.42,0,0,1,7.31,2.52,7,7,0,0,1,4.23,3.57,20.69,20.69,0,0,1,1.92,4.67c.19,3.91.74,7.91-2.31,11.15a10.8,10.8,0,0,1-1.29,1.24c-1.27,1-1.21,1.83.12,2.79a13.21,13.21,0,0,1,5.38,9.3c.07,3.68.49,7.45-2.68,10.29v0a5.51,5.51,0,0,1-2.39,2.5c-3.49,3.12-7.82,4.09-12.27,4.75l-11.41.13-12-.1h0c-1.65-4.37-1-8.93-1-13.42,0-2.42-.05-4.85,0-7.27s-.79-3.37-3.19-3.28a29.24,29.24,0,0,1-6.06-.16,2.36,2.36,0,0,1-.89-.49c-.1-2.75,1.66-4.29,3.7-5.64,7.2,0,7.2,0,7.23-7.17,0-4.24.19-8.49,0-12.71-.14-2.42.72-2.82,2.88-2.77C242.13,363.16,249.71,363.12,257.29,363.14Z" transform="translate(-77.85 -344.99)"/><path class="cls-31" d="M276.65,377.19l3.79-6.61c1.47-2.47,3.23-4.63,6.17-5.45l5.95-2.57a45,45,0,0,1,12.15-.56l8.37,3.13c4.9,1.72,7.19,5.93,9.59,10a25.43,25.43,0,0,1,1.11,2.49c2.37,5.2,1.85,10.71,1.79,16.17a36.58,36.58,0,0,1-1.37,6.12,25.67,25.67,0,0,1-7.39,11.42,5.63,5.63,0,0,1-2.94,1.63l0,0c-.48.61-.94,1.26-1.86,1.13-3.48,1.77-7.25,2.41-11.05,3l-7-.62a39.12,39.12,0,0,1-8.1-3.46c-2.5-.44-3.61-2.7-5.37-4.11-2.38-2.6-3.74-5.78-5.07-9-1.4-3.41-1.17-7.1-1.82-10.63.38-3.11.49-6.25,1.44-9.27A6.11,6.11,0,0,1,276.65,377.19Z" transform="translate(-77.85 -344.99)"/><path class="cls-32" d="M356.56,365.14l1.65-2h7.05l-10,14.06c-.07,1.66-1.5,2.56-2.17,3.89-1.37,1.72-2.72,3.45-3.95,5.28-.71,1.06-1.15,2.13-.2,3.29,1.36,2.07,3,3.94,4.42,6a75.18,75.18,0,0,0,4.65,6.3c2.34,3.4,4.85,6.67,7.25,10,.74.81.85,1.95,1.5,2.82a1.06,1.06,0,0,1-.62,1.28,6.11,6.11,0,0,0-1.47-.11c-3,.46-5.38-.34-6.92-3.08-2.1-1.09-2.81-3.35-4.24-5-1.58-2.09-3.13-4.21-4.78-6.25-1-1.41-2-2.75-3-4.11-2.37-3.16-2.38-3.16-4.61-.06-1.11,1.4-2.22,2.81-3.21,4.31-2.46,3-4.57,6.26-6.91,9.34a8.54,8.54,0,0,1-2.5,2.51c-1.76,3.07-4.73,2.28-7.43,2.28-1.95,0-.65-1.08-.51-1.76.92-3.17,3.5-5.26,5.17-7.94.89-1.44,2-2.72,2.81-4.23a4.38,4.38,0,0,1,.77-1c3.05-3.89,6.1-7.77,8.77-11.93.49-1.2-.15-2.09-.8-3-1.81-2.5-3.56-5-5.52-7.44-2.46-3.53-5-7-7.61-10.42-.71-.95-1.61-1.81-1.66-3.12-.44-.95-1.41-2.18.81-2,1.94.19,4-.64,5.82.68a2.13,2.13,0,0,0,1.09,1.41c3.95,3.47,6.28,8.21,9.58,12.18.5.67,1,1.3,1.49,2,2.08,3.09,2.08,3.09,4.13.16.46-.66.94-1.32,1.45-1.94.7-.81,1.12-1.92,2.3-2.25,2.26-2.28,3.78-5.09,5.49-7.76A7.2,7.2,0,0,1,356.56,365.14Z" transform="translate(-77.85 -344.99)"/><path class="cls-33" d="M427.88,416h-1.56c-1.36-.45-2.88.24-4.2-.57-1.86-5.12-.7-10.43-1-15.66-.07-3.47-.07-6.94,0-10.41-.16-4.64,0-9.28,0-13.92.27-3.45-.87-7,.86-10.34l.09-1.73a2.09,2.09,0,0,1,.79-.39c5.73-.83,6.06.05,6.11,4.74.15,14.59,0,29.19-.08,43.78A8,8,0,0,1,427.88,416Z" transform="translate(-77.85 -344.99)"/><path class="cls-5" d="M440.8,365.86a83.09,83.09,0,0,0,3.77,10.72c2.6,4,3.62,8.72,5.31,13.12.28.86.52,1.73.85,2.57,1.31,3.18,2.3,6.48,3.45,9.72.31,2.11,2,3.92,1.6,5.67a53.71,53.71,0,0,1,1.64-5.67c1.79-4.33,3.17-8.8,4.61-13.25a8.69,8.69,0,0,1,.29-.86c1.4-3.83,2.91-7.62,4.07-11.53,1.67-3.43,2-7.41,4.41-10.54a2.42,2.42,0,0,0,.59-1.82c1.38-1.09,5.37-1.53,6.62-.67.34.23.25.72.1,1.11L478,365c-3.19,8-6,16.06-8.64,24.22-.26,4.15-2.37,7.73-3.55,11.6-1,2.66-1.79,5.38-2.89,8-.67,1.31-.62,3-2,3.94-.79,1.35-.82,3.52-3.31,3s-5.58,1.47-6.85-2.3h0c-2.47-3.66-3.3-8-4.86-12-1.3-4.07-2.95-8-4.24-12.09-1.21-3.36-2.44-6.71-3.53-10.1a4.12,4.12,0,0,1-.2-2.17q-1.83-5.43-3.65-10.85c-1.07-3.18-1.06-3,2.41-3.25C439,362.91,440.21,363.75,440.8,365.86Z" transform="translate(-77.85 -344.99)"/><path class="cls-34" d="M87.61,405.1c-5.5-6.86-6.39-14.71-5.8-23.21a38,38,0,0,1,4.93-15.69,5.78,5.78,0,0,0,.31-1.75c2.07-1.84,2.73-4.79,5.17-6.37a2.65,2.65,0,0,1,1.57-.6c.57,0,1.14,0,1.72,0,.75.2,1.37.53,1.41,1.43-.48.83-1.34,1-2.14,1.38a12.12,12.12,0,0,0-1.15.55c-4.43,3.6-6.46,8.61-8.16,13.81a13.46,13.46,0,0,1-.65,2.31c-1.35,4.86-1.9,9.72.05,14.57.14,4,2.61,7.07,4.4,10.4A3.09,3.09,0,0,1,87.61,405.1Z" transform="translate(-77.85 -344.99)"/><path class="cls-35" d="M87.61,405.1c-.11-1.22,1.4-1.8,1.2-3.05a5.42,5.42,0,0,1,.84-3.11c.64-1.16,1.22-2.37,1.8-3.57.45-.82.85-1.66,1.26-2.5a5.33,5.33,0,0,1,1.23-1.7,1.32,1.32,0,0,1,.84-.23A1.59,1.59,0,0,1,96,392.18c-.1,3.24-1.75,5.9-3.23,8.63-1.5,2.43-2.9,4.89-2.4,7.92a1.76,1.76,0,0,1-.09.85c-.94,1-.6,2.53-1.27,3.66-.38.62-1,1.21-1.72,1s-.34-1-.3-1.56c.06-1-.47-2,0-3C86.59,408.07,87.84,406.69,87.61,405.1Z" transform="translate(-77.85 -344.99)"/><path class="cls-36" d="M87,409.68c0,1.36.78,2.65.29,4.08,2.78-.44,0-4.13,2.83-4.42a2.92,2.92,0,0,1,.76,4c-.33.63-.95-.29-1,0-.19.49.31.89.59,1.3.41.89,1.22,1.91.1,2.68-1,.66-1.92,0-2.69-.7-.53-.74-1.51-1.24-1.35-2.37,0-1.41,0-2.83.05-4.25Z" transform="translate(-77.85 -344.99)"/><path class="cls-37" d="M93.77,357.75c-2,1.67-4,3.25-5,5.76-.29.72-.6,1.56-1.68.94-.41-1.14,2.12-1.73.57-3.07a19.65,19.65,0,0,1,4-4.77c.37.89,1.09.77,1.82.64C93.83,357.28,93.93,357.44,93.77,357.75Z" transform="translate(-77.85 -344.99)"/><path class="cls-2" d="M143,401.55A27.54,27.54,0,0,0,137.6,405a33.53,33.53,0,0,1-19.07,8,41.36,41.36,0,0,1-18.27-2.47c-1.16-.45-2.1-.52-2.87.59.38-1.62-1.53-1.55-1.93-2.59a1.32,1.32,0,0,1-.1-1.29c.61-.83,1-2,2.42-1.6,6.48,4.3,13.71,5,21.22,4.42,8.91-.71,15.63-5.37,21.38-11.8C142.31,398.54,143.21,399.59,143,401.55Z" transform="translate(-77.85 -344.99)"/><path class="cls-38" d="M90.09,414.8c-2.3-.73.17-2.09-.3-3.1l.67,1.43c.67-1.43-.26-2.57-.37-3.79v-.61c-.48-1.56.32-3,.81-4.28a30,30,0,0,0,1-4.21c2.12-2.44,2.84-5.49,3.64-8.5,1.91-2.05,2-5.26,4.42-7a2.52,2.52,0,0,1,2,1.69c.12,2.56-2,4.08-3,6.05A49.48,49.48,0,0,0,93.8,407c-.44,1.28-.41,2.7-1.16,3.89-.3.47-1,.7-.92,1.39.16-.53.44-.77,1-.41-.08.46-.29.95.35,1.19-.73.71-.1,2-1.13,2.58C91.12,415.78,90.6,415.3,90.09,414.8Z" transform="translate(-77.85 -344.99)"/><path class="cls-39" d="M92.7,411.82l-1.77.92c1.46-2.06,1.45-4.06,2.2-5.83,1.27-2.66,1.68-5.63,3-8.28.44-.89.45-2.24,2-2a2.46,2.46,0,0,1,.44.79c1,2.89-.77,5.17-1.79,7.57a25.76,25.76,0,0,1-1.19,2.7l-.15.92C94.13,409.3,94.52,411.5,92.7,411.82Z" transform="translate(-77.85 -344.99)"/><path class="cls-40" d="M91.89,415.39,93.05,413c1-.35,2.16-.7,1.33,1-1,2.09-.22,3.78.86,5.3,1.24,1.74.74,2.67-.95,3.44-1.53-.14-1.82-1.46-2.41-2.49C90.68,418.6,91,417,91.89,415.39Z" transform="translate(-77.85 -344.99)"/><path class="cls-41" d="M91.89,415.39c0,1.61,0,3.22,0,4.83-2.19-.29-2.92-2.19-4.07-3.63,1.48.31,3.45,1.26,2.28-1.79Z" transform="translate(-77.85 -344.99)"/><path class="cls-42" d="M145.55,405l-.29-1.06c-3.51-8.51-7.77-16.56-14.44-23.12a4.08,4.08,0,0,1-1.28-3.27c.1-.75.2-1.52,1.12-1.74A66.49,66.49,0,0,1,147.58,401c.26.66.52,1.31.72,2,.09.31-.63,1.59.73.78,2.94,2.54,2.3,5.89,2.08,9.15-2.07.39-1.57-2.08-2.85-2.56a17.47,17.47,0,0,1-1-1.8C146.71,407.35,145.58,406.45,145.55,405Z" transform="translate(-77.85 -344.99)"/><path class="cls-43" d="M130.19,377.76c-.16,1.51.87,2.34,1.8,3.29,6.26,6.34,10.51,13.93,13.59,22.22.06.16-.21.46-.32.69L143,401.55c-.83-1-1.16-2.42-2.43-3.08a1.7,1.7,0,0,1-.42-.75A42.75,42.75,0,0,0,132,384.85c-1.51-1.74-3.39-3.3-3-6C129.2,378.28,129.36,377.66,130.19,377.76Z" transform="translate(-77.85 -344.99)"/><path class="cls-10" d="M141.16,413.59a12.18,12.18,0,0,0-5.85,2.59,4.55,4.55,0,0,1-3.27,1.05c3.59-2.91,7-6.07,11-8.5,1.12-.57,1.46,0,1.17,1a12.18,12.18,0,0,1-1.91,3.23A1.7,1.7,0,0,1,141.16,413.59Z" transform="translate(-77.85 -344.99)"/><path class="cls-9" d="M141.77,413c.14-1.39,1.25-2.24,1.85-3.38.4-.75-.11-.8-.63-.87-1.25-2.68,1.8-2.41,2.56-3.71a9.15,9.15,0,0,1,2.18,3.14A6.19,6.19,0,0,1,141.77,413Z" transform="translate(-77.85 -344.99)"/><path class="cls-37" d="M141.77,413a12.55,12.55,0,0,0,6-4.82l.92,1.68a2,2,0,0,1-.8,1.32c-2.66,2.27-4.8,5.12-7.89,6.92a58.56,58.56,0,0,1-11.56,5.21h-3.65c.37-.82,1.09-1,1.89-1.26,5.37-1.89,10.43-4.35,14.52-8.44Z" transform="translate(-77.85 -344.99)"/><path class="cls-44" d="M150.8,413.19c-.16-3.18-.26-6.37-1.74-9.31-2.25-6.58-4.93-12.92-9.35-18.44-2.46-3.07-4.75-6.26-7.82-8.77a2.65,2.65,0,0,1-1-1.81,1.56,1.56,0,0,1,.75-1.48c1.21-.36,2.06.25,2.93,1a40.31,40.31,0,0,1,6.53,6.91,68.62,68.62,0,0,1,11,20.93,35.34,35.34,0,0,1,2.32,9.89c0,1.23-.06,2.69,1.46,3.34-.34,2.37-2.43,3.43-3.8,5-.51,0-.77-.29-.63-.83l0-.6a23.67,23.67,0,0,0-1.26-3.54A2.76,2.76,0,0,1,150.8,413.19Z" transform="translate(-77.85 -344.99)"/><path class="cls-45" d="M155.88,415.45c-3.58.72-2.11-2.5-2.32-3.59-.87-4.61-1.72-9.22-3.82-13.44a7.55,7.55,0,0,1-.94-2.32c-.66-4.54-4.39-7.45-6.2-11.4-.49-1.06-1.38-2.16-2-3.27a2,2,0,0,1,2.2-.42,5.32,5.32,0,0,1,2.45,2.59c.94,1.75,2.18,3.31,3.15,5,2,3.27,3.62,6.78,5.38,10.2.37.77.7,1.56,1,2.36.37,1.19,1.21,2.27.77,3.61-1.18,1,.65.44.49.92a1.77,1.77,0,0,1,.21,1.19c-1.77,2.56.42,4.84.51,7.28a1.41,1.41,0,0,1-.35,1.16A1.28,1.28,0,0,1,155.88,415.45Z" transform="translate(-77.85 -344.99)"/><path class="cls-12" d="M156.36,415.36v-1.17c-.36-.86.09-1.68.13-2.53a14.31,14.31,0,0,1,1.72-4.42c.76-1.34.55-2.9.55-4.41,0-1.87-.47-2.69-2.41-1.59a2.56,2.56,0,0,1-2.32.2l-.74-2.4.27-.3c.23-.53,1.71.36,1.17-1a17.94,17.94,0,0,1,1.91-2.75c.91-1.15,2.52-2,3.72-1.16s3.16,1.77,2.47,3.67c-.45,1.26,1.2,2.71-.54,3.65.44.13,1-.1,1.33.35h.1C162,406.46,160.07,411.39,156.36,415.36Z" transform="translate(-77.85 -344.99)"/><path class="cls-46" d="M151.45,419.64l.64.83c-.18.6-.7.8-1.19,1C149.93,420.54,150.15,419.93,151.45,419.64Z" transform="translate(-77.85 -344.99)"/><path class="cls-47" d="M150.8,413.19l0,2.21c-.58.07-.94,0-.65-.74-.58.31-.06.69,0,1a1.68,1.68,0,0,1-.48,1.56,23.38,23.38,0,0,1-14,8.22,3.54,3.54,0,0,1-2.62-.14c-.45-.25-.92-.51-.9-1.09s.5-.73,1-.91a30.6,30.6,0,0,0,13.45-8.79c2.05-2.35,2.11-2.29,1.21-3.35a1.34,1.34,0,0,1,.8-1.32Z" transform="translate(-77.85 -344.99)"/><path class="cls-48" d="M149.67,417.22v-3c.9,0,.54,1,1.16,1.19.13,1.23,1.39,2.26.65,3.64C150.08,419.22,151.25,416.86,149.67,417.22Z" transform="translate(-77.85 -344.99)"/><path class="cls-49" d="M267.59,411.15l2.39-2.5A2.36,2.36,0,0,1,267.59,411.15Z" transform="translate(-77.85 -344.99)"/><path class="cls-50" d="M389.22,363.23c0,14.56.07,29.11,0,43.66,0,2.41.45,3.47,3.11,3.25,3.22-.27,6.47-.15,9.71-.19,1.95-1.48,4.22-.83,6.36-.92a51.44,51.44,0,0,1,5.69,0c4.61.1,5.63,1.17,4.32,4.52,0,3.31-2.71,1.78-4.22,2.38H402a96.9,96.9,0,0,0-12.17,0l-6.4,0c-1.33-.88-1.12-2.28-1.12-3.56,0-14.61,0-29.23-.15-43.84a16.41,16.41,0,0,1,1-5.28Z" transform="translate(-77.85 -344.99)"/><path class="cls-51" d="M96.8,358.94l-1.48-1.06A6.9,6.9,0,0,1,98,356c2.66,1.13,5.45-.51,8.2.53s5.59,1.28,8.22,2.49c-.1.44-.47.87.23,1.23,2.22,1.13,4.4,2.32,6.6,3.49,1.74.93,2.82-.43,3.94-1.26a29.2,29.2,0,0,1,14.16-5.88c1.62-.73,3.24,0,4.86,0h1.22l.61.61c.61.92.15,1.48-.65,1.92-7.88-.31-15.14,1.16-20.88,7.14a2.61,2.61,0,0,1-3.53.58c-3.24-1.58-6.15-3.78-9.59-5-4.11-2.79-8.79-2.54-13.43-2.46A1.22,1.22,0,0,1,96.8,358.94Z" transform="translate(-77.85 -344.99)"/><path class="cls-52" d="M98,356a3.22,3.22,0,0,1-2.67,1.92l-1.55-.13a4.08,4.08,0,0,1-.29-.5C95.23,357.68,96.11,355.08,98,356Z" transform="translate(-77.85 -344.99)"/><path class="cls-4" d="M122.3,357.72c-.2.62-.4,1.25-.61,1.87l-.59-.61,0-1.27Z" transform="translate(-77.85 -344.99)"/><path class="cls-7" d="M163.68,376.56l.59.63a7.56,7.56,0,0,1,1.37,5.15,4,4,0,0,1-.35,1.37c-2.32,1.55-2.91,1.42-3.92-1.08a139.67,139.67,0,0,0-5.87-13.17,24,24,0,0,0-5.36-6.84,23,23,0,0,0-3.17-2.74,1.77,1.77,0,0,1-.53-1.17c.35-.63.8-.82,1.41-.34,1.12.44,2.69.14,3,1.83,1.73,1,4,1.53,3.65,4.24,2.15,3.25,3.57,7,6.45,9.75.61.59.38,1.32.67,1.93C162.12,377.13,162.74,377.63,163.68,376.56Z" transform="translate(-77.85 -344.99)"/><path class="cls-53" d="M154.54,364.44c-.63-1.91-2.52-2.75-3.65-4.24,2.73-.14,4,1.87,5.47,3.64Z" transform="translate(-77.85 -344.99)"/><path class="cls-54" d="M147.85,358.37c-.48.06-1,.1-1.23.6a1,1,0,0,1-.66.32l-.36-.1-.24-.3.67-1.72,2,.68A4.71,4.71,0,0,1,147.85,358.37Z" transform="translate(-77.85 -344.99)"/><path class="cls-22" d="M144.2,356.56c-1.62.95-3.24-.42-4.86,0A4.54,4.54,0,0,1,144.2,356.56Z" transform="translate(-77.85 -344.99)"/><path class="cls-55" d="M115,359c.79-.33,1.68-1,1.82.61C116.18,359.57,115.46,359.7,115,359Z" transform="translate(-77.85 -344.99)"/><path class="cls-56" d="M256.76,385.16c-6.27.71-12.55,1-18.82-.08.37-.17-.16-.16.23-.18,4.33-.2,5.57-2.73,5.07-6.61a1.86,1.86,0,0,1,.26-.86,1.83,1.83,0,0,1,.75-.71,35.47,35.47,0,0,1,11.31-.07,1.94,1.94,0,0,1,.84.66C257.28,379.89,257,382.53,256.76,385.16Z" transform="translate(-77.85 -344.99)"/><path class="cls-56" d="M258.5,409.35c-4.81,1.38-9.71.54-14.57.58-1.5-2.6-.93-5.33-.52-8.05a1.84,1.84,0,0,1,.72-.82,34,34,0,0,1,11.34-.18,2.14,2.14,0,0,1,.84.56,6.18,6.18,0,0,1,.57,3.71A4.91,4.91,0,0,0,258.5,409.35Z" transform="translate(-77.85 -344.99)"/><path class="cls-56" d="M253.64,391.22a15.05,15.05,0,0,1,7.29,1.3c3.78,1.59,5.18,4.31,4.8,8.93a11.41,11.41,0,0,1-9.66,0h0c-1.32-1.63-.76-3.58-.82-5.4-.06-1.51-.11-2.95-1.49-3.94A.73.73,0,0,1,253.64,391.22Z" transform="translate(-77.85 -344.99)"/><path class="cls-56" d="M253.64,391.22v.52c-1.75,1.45-3.85.88-5.8.88-2.18,0-3.06.82-3.05,3,0,2,.51,4.05-.88,5.81h0a5.25,5.25,0,0,1-6,0c-.15-3.31-1.37-7.45.41-9.68,1.6-2,5.89-.51,9-.64C249.4,391.05,251.52,391.19,253.64,391.22Z" transform="translate(-77.85 -344.99)"/><path class="cls-56" d="M256.07,401.45h9.66c-.54,4.34-2.74,7.16-7.23,7.9-1.67.14-2.6-.38-2.45-2.29S256.08,403.32,256.07,401.45Z" transform="translate(-77.85 -344.99)"/><path class="cls-56" d="M237.89,377.18c-.57-8.53-.57-8.54,7.87-8.54,3,0,6.07.09,9.1.14a.63.63,0,0,1-.29.88c-1.91.85-3.93.46-5.91.51-3.67.09-3.7.09-3.86,3.63-.05,1.2,0,2.41-.89,3.39h0A5.25,5.25,0,0,1,237.89,377.18Z" transform="translate(-77.85 -344.99)"/><path class="cls-56" d="M254.86,369.29v-.51c6.76.54,9.6,3.34,9.2,9.09-2.69.17-5.43.81-8-.69h0C254.49,374.74,255.6,371.87,254.86,369.29Z" transform="translate(-77.85 -344.99)"/><path class="cls-56" d="M237.89,401.45h6c0,2.83,0,5.65,0,8.48-6.19.49-6.2.49-6.17-5.5C237.76,403.44,237.84,402.44,237.89,401.45Z" transform="translate(-77.85 -344.99)"/><path class="cls-56" d="M256.07,377.18c2.66.36,5.44-.77,8,.69-.5,4.35-2.65,6.49-7.29,7.29C255.33,382.61,256.42,379.83,256.07,377.18Z" transform="translate(-77.85 -344.99)"/><path class="cls-56" d="M237.89,377.18h6V379c0,6.07,0,6.07-6,6.09A39.35,39.35,0,0,1,237.89,377.18Z" transform="translate(-77.85 -344.99)"/><path class="cls-56" d="M317.45,397.81a7.07,7.07,0,0,1-1.61,3.71c-3.51,1.47-7.1.94-10.7.44a1.94,1.94,0,0,1-.85-.78c-.6-4-1.21-8,.39-12,4-1.4,8-1.09,12.09-.2,1.42,1.58,1,3.49.88,5.31A24.17,24.17,0,0,0,317.45,397.81Z" transform="translate(-77.85 -344.99)"/><path class="cls-56" d="M316.88,389.32H304.71l-.37-.41a29.36,29.36,0,0,1-.06-11.44,1.77,1.77,0,0,1,.81-.77c3.58-.53,7.17-1.06,10.67.41,1.29,1.13,1.19,2.66,1.19,4.16C317.63,384,318.49,386.65,316.88,389.32Z" transform="translate(-77.85 -344.99)"/><path class="cls-56" d="M284,402a20.46,20.46,0,0,1-3.13-12.66c3.8-1.72,7.65-1.26,11.51-.31,1.94,3.81.93,7.79.73,11.73a2.21,2.21,0,0,1-.62.91C289.74,402.72,286.89,402.38,284,402Z" transform="translate(-77.85 -344.99)"/><path class="cls-56" d="M292.56,389.32l-11.65.05a20,20,0,0,1,2.92-12.29c2.69-1.28,5.47-.89,8.25-.42a1.93,1.93,0,0,1,.85.72,27.83,27.83,0,0,1,0,11.53C292.82,389.05,292.69,389.18,292.56,389.32Z" transform="translate(-77.85 -344.99)"/><path class="cls-56" d="M306,410a16.73,16.73,0,0,1-14.1-.68c-.27-2.67-.86-5.37.63-7.91h0a17,17,0,0,1,12.17,0h0C306.4,404.12,305.11,407.25,306,410Z" transform="translate(-77.85 -344.99)"/><path class="cls-56" d="M292.47,369.16a15.22,15.22,0,0,1,11.66-1c.55.33,1.48.36,1.43,1.26-.17,2.61.7,5.34-.84,7.8h0a17,17,0,0,1-12.17,0h0A8.55,8.55,0,0,1,292.47,369.16Z" transform="translate(-77.85 -344.99)"/><path class="cls-56" d="M306,410c-1.36-.24-1.32-1.26-1.32-2.29,0-2.1,0-4.2,0-6.3l11.13.07A15.19,15.19,0,0,1,306,410Z" transform="translate(-77.85 -344.99)"/><path class="cls-56" d="M304.72,377.19c0-2.43-.08-4.86.14-7.26.09-.91-.37-1.26-.73-1.8a15.8,15.8,0,0,1,11.63,9Z" transform="translate(-77.85 -344.99)"/><path class="cls-56" d="M292.56,401.45c-.35,2.63.74,5.37-.63,7.91A14.46,14.46,0,0,1,284,402C286.81,400.81,289.73,401.74,292.56,401.45Z" transform="translate(-77.85 -344.99)"/><path class="cls-56" d="M292.47,369.16l.09,8-8.73-.11A14.91,14.91,0,0,1,292.47,369.16Z" transform="translate(-77.85 -344.99)"/><path class="cls-56" d="M316.88,389.32q0-4,.07-8.05l.53.29c.69,1.71.21,3.67,1.14,5.32.4,3.73.37,7.41-1.17,10.93C316.25,395.05,317.16,392.14,316.88,389.32Z" transform="translate(-77.85 -344.99)"/><path class="cls-56" d="M318.62,386.88c-2-1.42-.8-3.54-1.14-5.32A8.16,8.16,0,0,1,318.62,386.88Z" transform="translate(-77.85 -344.99)"/><path class="cls-57" d="M94.26,391.11A3.26,3.26,0,0,1,93.13,393c-1.07,1.77-2.27,1.62-3.14,0-2.92-5.59-5.55-11.28-3.83-17.88a11.29,11.29,0,0,0,.13-2.1,24.49,24.49,0,0,1,7.45-12.76l.62-.59c1.27.35,1.65,1,.83,2.18a36.25,36.25,0,0,0-5.53,12.58c-1,4.05-.68,7.54,1.9,10.79C93,386.93,94.16,388.76,94.26,391.11Z" transform="translate(-77.85 -344.99)"/><path class="cls-58" d="M94.26,391.11c-2.13-4.76-7.15-8.39-6-14.44,1-5.25,2.49-10.42,5.89-14.74.68-.86,1.38-1.45.17-2.32l2.44-.67,1,.12a.49.49,0,0,1,.37.62,3.74,3.74,0,0,1-.64,1.11c-2,3.23-4.35,6.08-5.28,10-1.13,4.77,0,8.91,1.49,13.23.54,1.58,2.29,2,2.76,3.48a3.53,3.53,0,0,1-2,3.68Z" transform="translate(-77.85 -344.99)"/><path class="cls-59" d="M93.74,360.2c-2.86,3.92-5.82,7.78-6.69,12.74-.94,2.17-1,4.62-2,6.76a.66.66,0,0,1-.77-.39,2.61,2.61,0,0,1,.36-2.73C85.66,370,88,364.15,93.74,360.2Z" transform="translate(-77.85 -344.99)"/><path class="cls-60" d="M90.08,399a7.15,7.15,0,0,1-1.27,3c-2.18-3.12-5.06-5.95-4.19-10.3l.4-.09C86.53,394.23,90.17,395.36,90.08,399Z" transform="translate(-77.85 -344.99)"/><path class="cls-60" d="M84.62,376.58v3c.45,3.59-.68,7.26.56,10.82.15.44-.2.95-.56,1.32h0c-2.34-1-1.24-3.31-1.68-4.93-.84-3.09.56-6.26.57-9.43C83.51,376.84,84.11,376.66,84.62,376.58Z" transform="translate(-77.85 -344.99)"/><path class="cls-59" d="M84.62,391.75c-.47-3.4-1.51-6.75-.63-10.24.16-.66,0-1.41.63-1.9h0a2.2,2.2,0,0,1,1.31,2.5c-.62,5.61,2.69,9.42,5.95,13.27a10.65,10.65,0,0,1-1.8,3.65C88.87,396.15,85.7,394.72,84.62,391.75Z" transform="translate(-77.85 -344.99)"/><path class="cls-61" d="M91.88,395.38c-3.59-2.75-6.59-5.84-6.66-10.77,0-1.68.35-3.42-.6-5,1.38-2,.46-4.87,2.43-6.67a26.58,26.58,0,0,0-.13,10.29c.36,1.83.61,3.55,1.82,4.95,1.05,1.23.77,2.88,1.65,4.23s1.6,1.43,2.74.57A3.91,3.91,0,0,1,91.88,395.38Z" transform="translate(-77.85 -344.99)"/><path class="cls-62" d="M94.49,391.2l1.81-3.64a5.94,5.94,0,0,1,1.36-2.95,1.71,1.71,0,0,1,1.13-.56c.6.08,1.21.17,1,1-1.25,2.33-1.45,5.33-4.26,6.67Z" transform="translate(-77.85 -344.99)"/><path class="cls-36" d="M91.92,400.24c1,3.18-1.11,5.69-1.83,8.49-1.07-.11-1.35-.7-1-1.66C90.05,404.79,91,402.52,91.92,400.24Z" transform="translate(-77.85 -344.99)"/><path class="cls-63" d="M140.49,398a2.94,2.94,0,0,0,0,.51c-3.7,4.79-7.92,8.46-14,10.58-9.16,3.21-17.71,2.27-26.43-.89a4.17,4.17,0,0,1-2.77-2.54c-.11-1.47.22-2.56,2-2.36,3.23,3.56,7.68,4.61,12.06,5.1,10.22,1.14,19.24-1.61,26.24-9.56a3.29,3.29,0,0,1,2-1.23A.75.75,0,0,1,140.49,398Z" transform="translate(-77.85 -344.99)"/><path class="cls-64" d="M99.14,403.14a5.07,5.07,0,0,0-1.79,2.48l-1.74,2c-.47-2.19.77-4.18,1.6-5.79s.56-3.11.79-4.65c.93-.21.57-1.11.87-1.65a2,2,0,0,1,.54-.58c3.23-5.69,6.65-11.22,11.43-15.79a5.1,5.1,0,0,0,1.2-2.08,2,2,0,0,1,.55-.68,1.13,1.13,0,0,1,.86.17,2.91,2.91,0,0,1,.73,2.95,107.08,107.08,0,0,0-9.38,12.56c-1.51,2.41-3.58,4.66-3.34,7.85a2.7,2.7,0,0,1-.55,1.55A5,5,0,0,1,99.14,403.14Z" transform="translate(-77.85 -344.99)"/><path class="cls-24" d="M112.62,376.54l0,.64c-5.42,5.37-10.36,11.08-13.37,18.21h0c-1.28-.47-.63,1-1.21,1.21a32.37,32.37,0,0,0-3.28,7.57,7.63,7.63,0,0,1-1.59,2.74,40.65,40.65,0,0,1,7.92-19,5.9,5.9,0,0,0,.59-1.67c-.6-.78-.21-1.42.31-2,2.57-1.68,3.91-4.52,6.14-6.54,1.38-1.26,3.24-2.15,3.55-4.31C113,374.13,113.45,375.13,112.62,376.54Z" transform="translate(-77.85 -344.99)"/><path class="cls-65" d="M102.25,384.47l-.61,1.81-1.82-1.21a1.22,1.22,0,0,0-1.19-.6c-.39-.57-.09-1.06.16-1.56a4.68,4.68,0,0,1,1.6-1.33,9.29,9.29,0,0,0,3.07-2.76c.89-1.28,2.18-2.34,3.91-1-.48,2.4-2.77,3.46-4,5.29C103,383.58,102.36,383.8,102.25,384.47Z" transform="translate(-77.85 -344.99)"/><path class="cls-66" d="M98,396.6c0-.76-.28-1.9,1.21-1.21-.41.6,1,2.44-1.21,1.82Z" transform="translate(-77.85 -344.99)"/><path class="cls-67" d="M131.43,374.74c.12,1.44,1.51,1.79,2.33,2.59a66.07,66.07,0,0,1,12.36,16.8c1.45,2.77,2.14,5.93,3.81,8.65.5.82-.25,1-.87,1.1-.27.4-.48,1.06-.83,1.14-.68.17-.29-.52-.37-.82-2.17-8-6.73-14.69-11.5-21.31-1.74-2.41-4.71-3.82-5.53-6.92a.92.92,0,0,1-.17-1.18A.58.58,0,0,1,131.43,374.74Z" transform="translate(-77.85 -344.99)"/><path class="cls-68" d="M130.86,374.81l0,1.16c-.68.43-.6,1.13-.64,1.79l-.6,1.21c-.5.57-.16,1.3-.39,1.92-1.06,1.61.12,3.35-.31,5-2.88-.17-4.16-2.32-5.49-4.4,2.14-1.36,2.34-4,3.79-5.8.54-.91,1.59-1.23,2.29-2,.37-.38.74-1.18,1.42-.56A1.27,1.27,0,0,1,130.86,374.81Z" transform="translate(-77.85 -344.99)"/><path class="cls-69" d="M129,380.81c0-.67-.08-1.38.6-1.84-.43,2.25,1.11,3.76,2.43,4.93,3.83,3.42,5.55,8.28,8.75,12.1.58.69-.06,1.32-.28,1.95l-.54-.14c-1.48-.37-2.1-1.51-2.54-2.82-1.64-3.82-4.36-6.89-7-10C129.37,383.78,128,382.68,129,380.81Z" transform="translate(-77.85 -344.99)"/><path class="cls-70" d="M142.75,381.41l-2.2,0c-2.16-2.3-4.26-4.65-6.61-6.79-.62-.57-1.43-.54-1.92-1.14-.86-1-.31-1.95.11-2.92.37-.63.73-1.28,1.53-1.47,1.05.18,1.63,1,2.33,1.69.86,1.17,1.75,2.32,2.61,3.5a13.86,13.86,0,0,0,1.21,1.56c.81,1.07,1.51,2.22,2.3,3.3a5.49,5.49,0,0,1,1,1.7A.46.46,0,0,1,142.75,381.41Z" transform="translate(-77.85 -344.99)"/><path class="cls-71" d="M132.65,370.51l-.63,3a1.38,1.38,0,0,0-.59,1.24l-.57.07c-.27-.36.46-1.18-.55-1.2.16,1.85-2.23,1-2.52,2.36a7.24,7.24,0,0,0-2.43,2.81c-.45.9-1,1.48-2,.81.06-3.16,4.85-9.67,7.65-10.32C132,369.06,133.14,368.75,132.65,370.51Z" transform="translate(-77.85 -344.99)"/><path class="cls-72" d="M147.25,359.59c1.19.58,2.43,1.1,3,2.43,4.35,5,7.72,10.53,8.67,17.23.57,4.08,3.27,6.75,5.92,9.5q.15.39.27.81c0,.6,0,1.21,0,1.81.14,2.1-1,2.17-2.49,1.55a17.54,17.54,0,0,1-2.47-1.75c-1.94-1.24-3.67-1-4.6.9a16.5,16.5,0,0,0-1.6,4.84,2.82,2.82,0,0,1-.64,2.09l-.09,0-5.57-10.26c.13-.53.2-1.08.72-1.4.74-.5.62,1.13,1.39.56,1-.58,0-2,1-2.57,4.18-2.68,3.78-6.81,3.23-10.82-.61-4.42-3.23-7.95-5.66-11.56C147.77,362,146.33,361.17,147.25,359.59Z" transform="translate(-77.85 -344.99)"/><path class="cls-73" d="M148.47,387.49a1.31,1.31,0,0,1-.75,1.29q-1.51-2.43-3-4.85c-1-2.18-.34-3.92,1.19-5.67s2-4.53,4.51-5.9c1.28-.7.52-2.46,0-3.63a19.85,19.85,0,0,0-4-6.37c-.72-1-1.89-2-.39-3.27l.6-.12.63.62c1,2.75,3.13,4.78,4.61,7.23,3,5.07,4.17,10.28,2.53,16a3.81,3.81,0,0,1-3.5,2.86,2.37,2.37,0,0,1-1.24.84C148.84,386.33,148.87,387.16,148.47,387.49Z" transform="translate(-77.85 -344.99)"/><path class="cls-74" d="M146.64,362c3.07,2.3,4.34,5.61,5.19,9.18a1.64,1.64,0,0,1-.81,2.07c-4,1.14-3.44,5.81-6.28,7.83-1.06.76,1.55,1.89-.06,2.83l-1.93-2.52a.53.53,0,0,1,.33,0c-.49-3,.6-5.78,1.34-8.54s1.65-5.56,1.3-8.54a3.16,3.16,0,0,1,.56-2Z" transform="translate(-77.85 -344.99)"/><path class="cls-75" d="M154,401.44a50.88,50.88,0,0,1,5.12-1.9c.39-.11.64,7.12-.19,8-1.13,1.25-1.14,2.87-2,4.18-1.88-1.25-1.13-3.17-1.24-4.87l-.2-1.21a1.07,1.07,0,0,1-.32-.62C155.3,403.71,154.41,402.66,154,401.44Z" transform="translate(-77.85 -344.99)"/><path class="cls-76" d="M155.77,406.9c1,1.47.57,3.31,1.24,4.87-.22.81-.43,1.62-.65,2.42C156.17,411.76,152.85,409.58,155.77,406.9Z" transform="translate(-77.85 -344.99)"/><path class="cls-76" d="M155.25,405.07l.32.62c-.91,0-1.82,0-2.1-1.27C154.29,404.09,154.61,405.08,155.25,405.07Z" transform="translate(-77.85 -344.99)"/><path class="cls-73" d="M153.32,396.6c-.4-1.94,2.32-6.63,4.19-7.17,1.65-.48,2.58.89,3.76,1.54,1,.55,1.56,2.24,3,1.56s.36-2.14.64-3.21a.35.35,0,0,1,.57,0c.46,4.21-.71,8.18-1.83,12.15-2.41-.19-2.05-1.73-1.63-3.31.18-.69,1-1.82-.07-1.95-1.43-.18-.34-1.3-1-1.67a2.39,2.39,0,0,0-2.57,0c-.78.52-1.94.82-2,2.08,0,.9-2,.45-1.24,1.83C153.62,398.73,154.06,397.08,153.32,396.6Z" transform="translate(-77.85 -344.99)"/><path class="cls-72" d="M164.9,382.6c.9.89.44,2,.62,3.07,0,1.21-.05,2.43-.07,3.64h-.58c-.79-1.82-1.26-3.64,0-5.47Z" transform="translate(-77.85 -344.99)"/><path class="cls-77" d="M153.32,396.6l1.83,1.82c-.21,1.36-1.22.26-1.77.58Z" transform="translate(-77.85 -344.99)"/><path class="cls-78" d="M111.37,361.41c3.81.49,6.56,3.09,9.73,4.86.78,1.48,1.86,1.5,2.85.35,2.72-3.13,6.28-4.88,10-6.45,1.27-.54,2.44-.91,3.68,0,.13,1.51-1.09,1.77-2.08,2.19-4.41,1.85-8.56,4.05-11.61,7.89-.65.82-1.64,1.62-2.54.57-3-3.57-7.53-5-11.17-7.66-.63-.47-1.86-.71-1.1-2A2,2,0,0,1,111.37,361.41Z" transform="translate(-77.85 -344.99)"/><path class="cls-54" d="M137.52,360.2c-5.34.53-9.57,3.24-13.24,6.89-1.75,1.74-2.76,1.93-3.18-.82a1.87,1.87,0,0,0,2.72-.31,17.7,17.7,0,0,1,10-6.34c3.69-.9,7.6-2.52,11.56-.73l.09.13c-.07,1.54-1.17,2-2.41,2.23C141.18,361,139.18,361.47,137.52,360.2Z" transform="translate(-77.85 -344.99)"/><path class="cls-79" d="M111.37,361.41h-2.43c-3.19,1.46-6.17-.64-9.28-.55A2,2,0,0,1,98,359.6c0-.18-.1-.36-.14-.54a6.77,6.77,0,0,1,.75-1.12c4,1.83,9.1-.41,12.66,3.21A.72.72,0,0,1,111.37,361.41Z" transform="translate(-77.85 -344.99)"/><path class="cls-80" d="M164.86,383.85c0,1.82,0,3.64,0,5.47-4.47-2.68-6.49-7-7.16-11.83-.64-4.56-2.78-8.26-5.33-11.87-.81-1.14-1.87-2.13-2.1-3.6,4.78,3.35,6.62,8.67,9,13.58a58.29,58.29,0,0,1,3,7.49C162.85,384.83,163.85,384.1,164.86,383.85Z" transform="translate(-77.85 -344.99)"/><path class="cls-74" d="M143,360.8c.92-.47,2-.76,2.47-1.78a.75.75,0,0,1,.57.07c-.66,1.15.52,1.93.62,2.93h0a1.9,1.9,0,0,1-2,.87,2.49,2.49,0,0,1-1.84-1.38A.7.7,0,0,1,143,360.8Z" transform="translate(-77.85 -344.99)"/><path class="cls-56" d="M254.86,369.29c1.45.21,1.2,1.33,1.21,2.28,0,1.87,0,3.74,0,5.62H243.91c0-7.9,0-7.9,8-7.89Z" transform="translate(-77.85 -344.99)"/><path class="cls-56" d="M243.91,401.45c0-2.59.05-5.18,0-7.77,0-1.4.54-2,2-1.95,2.59,0,5.19,0,7.78,0,1.71-.18,2.57.39,2.47,2.3-.14,2.46,0,4.94,0,7.41Z" transform="translate(-77.85 -344.99)"/><path class="cls-56" d="M304.72,401.45H292.55q0-6.06,0-12.13h0a17,17,0,0,1,12.17,0h0Q304.73,395.38,304.72,401.45Z" transform="translate(-77.85 -344.99)"/><ellipse class="cls-56" cx="298.64" cy="383.25" rx="8.58" ry="8.6" transform="translate(-162.88 336.37) rotate(-89.92)"/><path class="cls-81" d="M97.91,385.06a5.9,5.9,0,0,1-1.61,2.5c-4.93-2.51-5-7.64-5.34-11.87-.47-5.88,2.18-11.19,6.43-15.49.83-.26,1.38.26,2,.68,0,.88-.55,1.35-1.15,1.83-5.15,4.47-6.15,15.78-.7,21.54A2.18,2.18,0,0,1,97.91,385.06Z" transform="translate(-77.85 -344.99)"/><path class="cls-82" d="M99.22,360.83l-1.83-.63.57-.6,1.69.66c.32.05.43.22.31.53A.58.58,0,0,1,99.22,360.83Z" transform="translate(-77.85 -344.99)"/><path class="cls-82" d="M97.91,385.06c-3.4-1.13-3.54-4.36-4.31-7-1.51-5.25,0-12.77,4.4-16,1.51.66,1.7,1.61.55,2.78-2.92,3-1.81,7.05-2.89,10.54-.4,1.27.53,2.93,1.64,3.73,1.56,1.12,1.79,2.52,1.77,4.16l-.44,1.24Z" transform="translate(-77.85 -344.99)"/><path class="cls-12" d="M138,395l1.91,2.79a35.87,35.87,0,0,1-10.59,8.38,30.26,30.26,0,0,1-21.86,2.13,19.67,19.67,0,0,1-6.93-2.79,2.67,2.67,0,0,1-1.43-2.39,3,3,0,0,1,1.25-1.76c3,.1,5.1,2.25,7.63,3.4,8.73,4,16.49,1.61,23.93-3.2,2.54-1.63,4.82-3.6,5-7C137.45,394.48,137.9,394.35,138,395Z" transform="translate(-77.85 -344.99)"/><path class="cls-59" d="M137,394.55c.77,2.34,0,3.83-1.93,5.52a28.49,28.49,0,0,1-19.7,7.46c-4.49,0-8.24-2.29-12-4.29-1-.52-2.74-.18-3-1.86l.6-1.23c.35-.6.44-1.5,1.5-1.27A33.27,33.27,0,0,0,115,404c7.67,1.45,17.88-3.88,20.6-11C136.85,392.76,137.25,393.36,137,394.55Z" transform="translate(-77.85 -344.99)"/><path class="cls-83" d="M102.28,399.11l-1.29,1c-1.76-2.32.52-3.78,1.4-5.28,3.23-5.48,6.36-11.1,11.4-15.26a1.42,1.42,0,0,1,.95,1.77c-2.65,3.64-5.87,6.83-8.17,10.79-.95,1.65-1.88,3.29-2.69,5A4.81,4.81,0,0,1,102.28,399.11Z" transform="translate(-77.85 -344.99)"/><path class="cls-66" d="M99.21,395.39c.09-4.25,3.13-7.05,5.26-10.21,1.83-2.72,4.27-5,6.44-7.52.45-.53,1.08-.45,1.67-.48.22,1.67-1.13,2.53-2,3.48-4.13,4.32-8,8.73-9.74,14.66C100.61,396,99.76,395.24,99.21,395.39Z" transform="translate(-77.85 -344.99)"/><path class="cls-84" d="M112.62,376.54a4.25,4.25,0,0,0-1.21-3.07,1.27,1.27,0,0,1-.45-1.15c.78-2.09,2-1.27,3-.29a25.32,25.32,0,0,1,5.2,6.59,7.86,7.86,0,0,0,1.51,2.22c-.16,1.43-1.25,1.82-2.41,2.13-2.15-.44-1.33-3-2.9-4-.85-.54-1.13-1.81-2.12-2.38Z" transform="translate(-77.85 -344.99)"/><path class="cls-85" d="M113.19,376.58c.6-.73.9-.28,1.36.24a17.86,17.86,0,0,1,3.55,5.84c.06,1.58-.8,2.16-2.27,2.08-.86-.47-.81-1.41-1.14-2.15a3.09,3.09,0,0,1-.28-1.16l-.62-1.82Z" transform="translate(-77.85 -344.99)"/><path class="cls-38" d="M111.37,372.33c0,.38,0,.76,0,1.14A3.07,3.07,0,0,1,110,377a22,22,0,0,0-5.18,5.65,3.2,3.2,0,0,1-2.6,1.8c-1.81-.48-.4-1.11,0-1.42a24.71,24.71,0,0,0,4.85-5.26c-1.08-1.24-.92-2.31.52-3.1a14.42,14.42,0,0,0,3-2.43A.71.71,0,0,1,111.37,372.33Z" transform="translate(-77.85 -344.99)"/><path class="cls-86" d="M99.07,383.23c-.57-2.18-2.55-3.44-3.51-5.39a5.28,5.28,0,0,1-.17-5.18c.32-.6.81-1.21.53-2-1-2.61.48-4.63,2-6.25,1.06-1.11.55-1.61.06-2.42l1.22-1.19.6,0c1.71,0,3,.52,3.22,2.43-2.61,2.51-4.75,5.25-4.3,9.18.1.86-.31,1.61.9,2.43,1.46,1-.54,2.19-.72,3.35.36-.77,1.07-1.4,1.82-1,1.3.67.09,2,.53,3a2.29,2.29,0,0,1-.78,1.85Z" transform="translate(-77.85 -344.99)"/><path class="cls-87" d="M100.49,382c-.43-.79.4-1.2.55-1.82,2.26-4.23,4.57-8.41,8.8-11.1a2,2,0,0,1,1,3.13,3.2,3.2,0,0,1-2.44,2.76c-1.46.53-1.74,1.44-1.26,2.78-1.48.08-2.88,0-3.42,2C103.33,381.14,101.81,381.65,100.49,382Z" transform="translate(-77.85 -344.99)"/><path class="cls-88" d="M115.73,384.74l2.37-2.08a5.92,5.92,0,0,0,2.29-1.86,1.51,1.51,0,0,1,1.6-.95,2.24,2.24,0,0,1,.74.29,2.27,2.27,0,0,1,.93,1.26l5.26,4.55a1,1,0,0,1,1,.86c-4.73,6.26-14.44,10.38-20,4.1C110.68,387.76,112.89,386,115.73,384.74Z" transform="translate(-77.85 -344.99)"/><path class="cls-89" d="M129.58,387l-.66-1c-.85-1.72-1.94-3.45.07-5.14.48,3.68,4.09,5.23,5.61,8.2,1.05,2.06,3.13,3.53,3.44,6l-1-.47a2.34,2.34,0,0,0-1.35-1.5,3.33,3.33,0,0,1-1.51-1,10.16,10.16,0,0,0-1.48-1.13,12.59,12.59,0,0,1-2.06-2.32A6.72,6.72,0,0,1,129.58,387Z" transform="translate(-77.85 -344.99)"/><path class="cls-90" d="M123.66,381.4l-1.39-1.14c.24-.57.57-1,1.26-.65,1.84-.72,1.84-3.58,4.26-3.64-.51,1.49-1.83,2.57-2,4.29C125.71,381.33,124.62,381.47,123.66,381.4Z" transform="translate(-77.85 -344.99)"/><path class="cls-91" d="M123.53,379.61l-1.26.65h0c-2-.8-2.89-2.57-4.09-4.12-2.69-3.49-5.5-6.87-10-8.14-1.26-.61-2.42-1.31-2.46-2.94,2.6-1.74,4.64.13,6.5,1.34,2.94,1.91,5.41,4.49,8.53,6.21,1.39.76,1.22,2.43,1.37,3.42a21.65,21.65,0,0,1,5.25-6.81c1.78-1.47,3.87-2.52,5.62-4.08,1.3-1.15,3-.68,4.61-.19.17,2.7-2.1,3.32-3.81,4.41l-1.15,1.14c-.76-1.85-2-.59-2.52-.07C127.32,373,124.71,375.83,123.53,379.61Z" transform="translate(-77.85 -344.99)"/><path class="cls-92" d="M142.9,361.36l1.91,1.27a4.58,4.58,0,0,1,.76,2.58c-.63,4.68-1.6,9.31-2.38,14-.12.72-.72.89-1.38.42L139.27,376a2,2,0,0,1,.53-1.08c1.24-1.41.15-2.77-.1-4.14a9,9,0,0,0,.56-3.44c1.11-1.07.17-1.68-.53-2.35a3.41,3.41,0,0,1,.21-1.7C140.58,362.14,141,360.65,142.9,361.36Z" transform="translate(-77.85 -344.99)"/><path class="cls-93" d="M140,375.37l-.68.64-1-1.26c.18-2-1.23-2.71-2.64-3.46l-1.82-1.92c.61-2,3-2.44,3.73-4.32.63-1.21,1.42-2.1,3-1.37l-.54,1.37c.44.75.27,1.65.6,2.42a2,2,0,0,1-.61,3c-.77.89.31,1.36.48,2C140.69,373.57,141.27,374.62,140,375.37Z" transform="translate(-77.85 -344.99)"/><path class="cls-94" d="M141.81,379.6c2.27-1.71,1.09-4.36,1.65-6.53.43-1.68.56-3.53.95-5.28.3-1.4,1.25-2.81-.36-4.05,0,0,.5-.73.76-1.11l1.82-.61c.64,6.8-2.14,13-3.55,19.41Z" transform="translate(-77.85 -344.99)"/><path class="cls-95" d="M135.62,371.29c2.88.32,3.91,1.67,2.64,3.46Z" transform="translate(-77.85 -344.99)"/><path class="cls-96" d="M148.47,387.49,148,385.3l1.71,1a1.25,1.25,0,0,1,0,1.81C149.54,388.44,149,388.17,148.47,387.49Z" transform="translate(-77.85 -344.99)"/><path class="cls-97" d="M149.68,388.1c0-.6,0-1.21,0-1.81a1.26,1.26,0,0,1,1.22-.61,15.47,15.47,0,0,1,0,2.36C150.61,389.68,150.08,388,149.68,388.1Z" transform="translate(-77.85 -344.99)"/><path class="cls-98" d="M140.49,363.68c-1.49-.62-1.7,1.51-3,1.37-7.48.81-11.36,6.42-16,12.4.67-4.21-2.48-4.73-4.36-6.18-3.11-2.42-5.83-5.54-10-6.4a2.81,2.81,0,0,0-1.43.22,2.71,2.71,0,0,1-2.81-1.91,7.86,7.86,0,0,0-3.15-2.38c-.06-.18-.12-.36-.17-.54l9.29,1.15c3.61,2.28,7.23,4.54,10.83,6.84.74.46,1.68.75,1.91,1.79s.95.84,1.29.33c3.37-5.11,8.71-7.25,14-9.45.23-.1.35-.48.52-.72a17.65,17.65,0,0,1,5.46.6,1.77,1.77,0,0,0-.08.56C141.82,361.84,140.63,362.22,140.49,363.68Z" transform="translate(-77.85 -344.99)"/><path class="cls-99" d="M134.47,391.78l1.21,1.27c1.12,2.79-1.27,4.21-2.68,5.51-9,8.24-21.18,8.69-30.72.55a3.48,3.48,0,0,1,1.17-2,1.07,1.07,0,0,1,.86,0c5.41,2.49,10.75,5.12,17.07,3.76a16.17,16.17,0,0,0,9.83-6A9.43,9.43,0,0,1,134.47,391.78Z" transform="translate(-77.85 -344.99)"/><path class="cls-100" d="M104,397.1l-.29,0-.29-.05c1.54-5.31,5.26-9.24,8.54-13.44a20.42,20.42,0,0,1,2.42-2.21l.61.6c.42,2.41-1.82,3.27-2.86,4.82-.91,1.35-2.72,2.12-2.67,4.11a2.72,2.72,0,0,1-.21.79,17.85,17.85,0,0,1-2.4,2.74C105.87,395.3,105.58,396.88,104,397.1Z" transform="translate(-77.85 -344.99)"/><path class="cls-101" d="M108.34,367.48c4.82.77,7.44,4.52,10.21,7.87,1.29,1.57,2.58,3.22,3.75,4.92l-1.91.53c-.65,0-1.11.09-1.48-.91-1.1-3-3.48-5.17-5.59-7.47-.48-.52-1.24-1.69-1.95-.09a3.6,3.6,0,0,1-.56-.08,3.62,3.62,0,0,0-1.22-2.89C108.68,369.05,108,368.59,108.34,367.48Z" transform="translate(-77.85 -344.99)"/><path class="cls-102" d="M109,391.22c-.1-.94-.4-1.68.56-2.66,2-2,4.22-3.89,5.49-6.53.92.73.49,1.8.71,2.71l-5.58,5.78C109.89,391,109.63,391.43,109,391.22Z" transform="translate(-77.85 -344.99)"/><path class="cls-103" d="M108.34,367.48l1.25,1.88L101,380.22c-2-.6.38-1.77-.35-2.55-1.17-.35-1.2,1-1.88,1.35-1.13-1.32.35-2.66-.44-4.51-1.19-2.8-1.37-7.09,2.4-9.49-1-2.72,1.89-.72,2.2-1.84l2.81,1.91A7.91,7.91,0,0,0,108.34,367.48Z" transform="translate(-77.85 -344.99)"/><path class="cls-23" d="M109,391.22l1.18-.7c5.17,4.07,10.31,3.77,15.16-.77,1.23-1.16,3.21-1.3,4.27-2.79l1.24,1.17c1.05,1.53.4,2.87-.5,4.15-4.17,6-15.12,7.52-21,3.07-1.51-1.15-1.31-2.29-.43-3.61C109,391.56,109,391.39,109,391.22Z" transform="translate(-77.85 -344.99)"/><path class="cls-104" d="M104,397.1a8.66,8.66,0,0,1,2.5-2.85,1.68,1.68,0,0,1,.61.63c.31.42-.77.6-.23.8,4.73,1.72,9.41,3.45,14.65,2.68,3.59-.52,6.58-1.73,8.66-4.81a6.61,6.61,0,0,1,3-2.86,1.65,1.65,0,0,1,1.22,1.09c-5.05,8.5-13.56,12.55-23.37,8.91C108.63,399.77,105.71,399.63,104,397.1Z" transform="translate(-77.85 -344.99)"/><path class="cls-82" d="M133.25,390.69c-2.21,2.9-3.86,6.22-7.8,7.53a23.8,23.8,0,0,1-13.48.16c-1.53-.36-2.7-1.59-4.46-1.64-1.58-.05-.6-1.66-1-2.49a6.72,6.72,0,0,1,2.4-2.51c-.53,2,.42,3,2.28,3.73,7.18,2.86,13.23,2,17.77-2.76a5.57,5.57,0,0,0,1.84-4.58C132.09,388.55,132.09,390.17,133.25,390.69Z" transform="translate(-77.85 -344.99)"/><path class="cls-105" d="M140,375.37c.94-1.42,0-2.42-.72-3.51-.5-.75-1.18-1.78.71-1.34C140.76,372.13,142.65,373.75,140,375.37Z" transform="translate(-77.85 -344.99)"/><path class="cls-106" d="M140.55,367.47a1.7,1.7,0,0,1-.6-2.42C141.53,365.52,141.58,366.36,140.55,367.47Z" transform="translate(-77.85 -344.99)"/></svg>